<svg id="svg" version="1.1" xmlns="http://www.w3.org/2000/svg" xmlns:xlink="http://www.w3.org/1999/xlink" width="400" height="376.84210526315786" viewBox="0, 0, 400,376.84210526315786"><g id="svgg"><path id="path0" d="M197.549 0.377 C 197.549 0.584,197.295 0.754,196.984 0.754 C 196.673 0.754,196.418 1.018,196.418 1.342 C 196.418 1.665,196.237 1.818,196.016 1.681 C 195.793 1.543,195.519 1.795,195.401 2.245 C 195.273 2.735,194.983 2.980,194.672 2.861 C 194.380 2.749,194.156 2.903,194.156 3.216 C 194.156 3.521,193.987 3.770,193.779 3.770 C 193.572 3.770,193.402 3.940,193.402 4.147 C 193.402 4.636,192.006 6.032,191.517 6.032 C 191.310 6.032,191.140 6.297,191.140 6.620 C 191.140 6.943,191.001 7.121,190.831 7.016 C 190.413 6.758,189.120 8.299,188.974 9.229 C 188.909 9.639,188.692 10.139,188.491 10.341 C 188.289 10.542,188.124 10.994,188.124 11.345 C 188.124 11.696,187.870 12.081,187.559 12.200 C 187.190 12.342,186.993 12.929,186.993 13.891 C 186.993 14.741,186.754 15.563,186.428 15.834 C 185.983 16.203,185.862 17.262,185.862 20.793 C 185.862 24.436,185.969 25.324,186.428 25.500 C 186.798 25.642,186.993 26.229,186.993 27.196 C 186.993 28.164,187.189 28.751,187.559 28.893 C 187.870 29.012,188.124 29.502,188.124 29.981 C 188.124 30.460,188.289 30.908,188.491 30.977 C 188.692 31.046,188.916 31.498,188.990 31.982 C 189.063 32.466,189.305 32.975,189.528 33.113 C 189.751 33.251,189.997 33.789,190.075 34.307 C 190.152 34.826,190.424 35.207,190.678 35.156 C 190.932 35.104,191.140 35.326,191.140 35.649 C 191.140 35.972,191.322 36.125,191.543 35.988 C 191.764 35.851,192.038 36.095,192.152 36.531 C 192.266 36.967,192.509 37.323,192.692 37.323 C 193.256 37.323,194.401 38.663,194.243 39.138 C 194.154 39.405,194.321 39.498,194.656 39.370 C 195.013 39.233,195.311 39.442,195.469 39.941 C 195.606 40.373,195.876 40.630,196.069 40.511 C 196.261 40.392,196.418 40.774,196.418 41.359 C 196.418 42.100,196.675 42.535,197.267 42.795 C 197.782 43.021,198.161 43.563,198.232 44.176 C 198.296 44.731,198.593 45.388,198.891 45.636 C 199.668 46.281,199.649 50.141,198.869 50.141 C 198.558 50.141,198.324 50.269,198.348 50.424 C 198.496 51.358,198.247 52.413,197.926 52.215 C 197.719 52.087,197.549 52.326,197.549 52.746 C 197.549 53.240,197.366 53.440,197.031 53.312 C 196.673 53.174,196.513 53.416,196.513 54.093 C 196.513 55.315,196.317 55.514,195.115 55.514 C 194.588 55.514,194.156 55.660,194.156 55.839 C 194.156 56.383,192.912 57.656,192.581 57.451 C 192.411 57.346,192.271 57.858,192.271 58.590 C 192.271 59.617,192.143 59.870,191.706 59.703 C 191.348 59.565,191.140 59.708,191.140 60.092 C 191.140 60.425,190.974 60.697,190.771 60.697 C 190.567 60.697,190.294 61.124,190.163 61.646 C 190.032 62.168,189.520 62.913,189.025 63.302 C 188.344 63.838,188.124 64.378,188.124 65.518 C 188.124 66.511,187.931 67.100,187.559 67.243 C 187.163 67.395,186.993 68.013,186.993 69.311 C 186.993 70.496,186.790 71.330,186.428 71.631 C 185.989 71.995,185.862 73.015,185.862 76.201 C 185.862 79.595,185.960 80.302,186.428 80.302 C 186.861 80.302,186.993 80.779,186.993 82.335 C 186.993 83.794,187.153 84.429,187.559 84.585 C 187.870 84.704,188.124 85.213,188.124 85.716 C 188.124 86.219,188.390 86.732,188.714 86.856 C 189.038 86.981,189.198 87.253,189.069 87.462 C 188.940 87.671,189.098 87.842,189.422 87.842 C 189.803 87.842,190.009 88.185,190.009 88.819 C 190.009 89.469,190.254 89.861,190.737 89.988 C 191.205 90.110,191.386 90.385,191.243 90.758 C 191.099 91.132,191.197 91.279,191.519 91.171 C 191.944 91.030,194.533 93.196,194.533 93.693 C 194.533 94.260,195.967 95.382,196.691 95.382 C 197.163 95.382,197.549 95.608,197.549 95.885 C 197.549 96.694,201.912 96.734,202.362 95.930 C 202.553 95.588,203.160 95.283,203.711 95.251 C 204.261 95.219,204.712 94.981,204.712 94.722 C 204.712 94.463,204.946 94.251,205.231 94.251 C 205.529 94.251,205.749 93.860,205.749 93.328 C 205.749 92.821,206.035 92.120,206.385 91.770 C 207.550 90.606,207.155 85.650,205.796 84.376 C 205.200 83.817,204.713 83.167,204.713 82.930 C 204.713 82.694,204.511 82.568,204.265 82.650 C 203.639 82.859,202.451 81.582,202.451 80.701 C 202.451 80.298,202.281 79.864,202.074 79.736 C 201.866 79.608,201.697 79.107,201.697 78.623 C 201.697 78.139,201.442 77.646,201.131 77.526 C 200.715 77.367,200.566 76.710,200.566 75.047 C 200.566 73.191,200.667 72.824,201.131 73.002 C 201.539 73.159,201.697 72.961,201.697 72.291 C 201.697 71.781,202.121 70.906,202.639 70.347 C 203.157 69.787,203.582 69.174,203.582 68.984 C 203.582 68.794,203.836 68.736,204.147 68.855 C 204.505 68.993,204.713 68.850,204.713 68.466 C 204.713 68.133,204.977 67.861,205.300 67.861 C 205.624 67.861,205.802 67.721,205.697 67.551 C 205.591 67.380,205.836 66.958,206.240 66.612 C 206.644 66.266,206.975 65.727,206.975 65.414 C 206.975 65.101,207.144 64.844,207.352 64.844 C 207.559 64.844,207.729 64.620,207.729 64.345 C 207.729 63.698,209.403 62.120,209.736 62.453 C 209.876 62.593,209.991 62.425,209.991 62.080 C 209.991 61.734,210.245 61.451,210.556 61.451 C 210.867 61.451,211.101 61.324,211.077 61.169 C 210.909 60.106,211.202 59.189,211.709 59.189 C 212.033 59.189,212.211 59.050,212.106 58.880 C 212.000 58.709,212.149 58.117,212.436 57.564 C 212.723 57.010,213.012 56.004,213.077 55.329 C 213.150 54.571,213.381 54.138,213.680 54.199 C 214.060 54.276,214.155 53.034,214.118 48.449 C 214.080 43.688,213.972 42.601,213.539 42.601 C 213.169 42.601,213.007 42.140,213.007 41.093 C 213.007 40.264,212.837 39.585,212.630 39.585 C 212.422 39.585,212.253 39.267,212.253 38.877 C 212.253 38.488,212.015 37.972,211.724 37.731 C 211.433 37.490,211.091 36.875,210.963 36.365 C 210.835 35.855,210.564 35.438,210.360 35.438 C 210.157 35.438,209.991 34.935,209.991 34.319 C 209.991 33.479,209.849 33.254,209.425 33.417 C 209.033 33.567,208.860 33.391,208.860 32.840 C 208.860 32.403,208.732 32.085,208.577 32.133 C 208.138 32.269,206.612 30.818,206.828 30.470 C 206.933 30.300,206.675 30.160,206.255 30.160 C 205.730 30.160,205.558 29.983,205.707 29.595 C 205.845 29.237,205.702 29.029,205.318 29.029 C 204.985 29.029,204.713 28.780,204.713 28.476 C 204.713 28.138,204.492 28.007,204.147 28.139 C 203.732 28.298,203.582 28.090,203.582 27.361 C 203.582 26.814,203.327 26.269,203.016 26.150 C 202.705 26.030,202.451 25.537,202.451 25.053 C 202.451 24.569,202.281 24.068,202.074 23.940 C 201.866 23.812,201.697 22.539,201.697 21.112 C 201.697 19.685,201.866 18.413,202.074 18.285 C 202.281 18.156,202.451 17.656,202.451 17.172 C 202.451 16.688,202.705 16.194,203.016 16.075 C 203.327 15.955,203.582 15.410,203.582 14.863 C 203.582 14.122,203.730 13.925,204.162 14.091 C 204.503 14.222,204.718 14.122,204.683 13.849 C 204.543 12.762,204.745 12.064,205.198 12.064 C 205.465 12.064,205.710 11.706,205.743 11.268 C 205.776 10.830,206.073 10.173,206.404 9.808 C 207.174 8.957,207.164 3.617,206.393 3.913 C 206.132 4.013,205.832 3.767,205.727 3.367 C 205.623 2.967,205.272 2.639,204.948 2.639 C 204.567 2.639,204.440 2.429,204.587 2.045 C 204.732 1.668,204.624 1.478,204.292 1.524 C 203.010 1.704,202.451 1.470,202.451 0.754 C 202.451 0.077,202.199 0.000,200.000 0.000 C 198.618 0.000,197.549 0.164,197.549 0.377 M200.938 3.288 C 201.355 3.645,201.697 4.183,201.697 4.482 C 201.697 4.782,201.810 4.913,201.949 4.775 C 202.087 4.636,202.511 4.804,202.891 5.147 C 203.621 5.808,203.869 8.294,203.205 8.294 C 202.997 8.294,202.828 8.973,202.828 9.802 C 202.828 10.891,202.670 11.310,202.262 11.310 C 201.910 11.310,201.697 11.666,201.697 12.253 C 201.697 12.839,201.483 13.195,201.131 13.195 C 200.754 13.195,200.566 13.572,200.566 14.326 C 200.566 14.948,200.399 15.457,200.196 15.457 C 199.992 15.457,199.722 15.869,199.596 16.372 C 199.470 16.876,199.127 17.379,198.835 17.492 C 198.426 17.648,198.303 18.573,198.303 21.489 C 198.303 24.406,198.426 25.330,198.835 25.487 C 199.127 25.599,199.478 26.135,199.614 26.678 C 199.854 27.634,201.117 29.029,201.742 29.029 C 201.911 29.029,201.942 29.312,201.809 29.657 C 201.662 30.041,201.720 30.190,201.959 30.042 C 202.483 29.719,203.530 30.923,203.701 32.045 C 203.777 32.542,204.036 33.013,204.276 33.094 C 204.516 33.174,204.713 33.498,204.713 33.814 C 204.713 34.151,204.930 34.304,205.241 34.185 C 205.560 34.063,205.849 34.286,205.970 34.748 C 206.080 35.169,206.351 35.402,206.572 35.265 C 206.824 35.110,206.975 35.449,206.975 36.170 C 206.975 36.804,207.156 37.323,207.378 37.323 C 208.188 37.323,208.826 38.400,208.915 39.917 C 208.973 40.896,209.189 41.470,209.499 41.470 C 209.769 41.470,209.991 41.797,209.991 42.197 C 209.991 42.597,210.245 43.179,210.556 43.490 C 211.336 44.270,211.393 53.157,210.618 53.157 C 210.290 53.157,210.093 53.693,210.054 54.691 C 210.021 55.534,209.739 56.479,209.427 56.791 C 209.115 57.103,208.860 57.695,208.860 58.108 C 208.860 58.520,208.709 58.764,208.525 58.650 C 208.342 58.537,208.099 58.798,207.985 59.232 C 207.872 59.665,207.598 59.907,207.377 59.771 C 207.131 59.618,206.975 59.907,206.975 60.514 C 206.975 61.527,206.219 62.582,205.493 62.582 C 205.271 62.582,205.090 62.826,205.090 63.123 C 205.090 63.420,204.748 63.771,204.330 63.904 C 203.912 64.036,203.668 64.302,203.787 64.495 C 203.906 64.687,203.729 64.844,203.393 64.844 C 203.057 64.844,202.895 65.025,203.032 65.247 C 203.169 65.468,202.925 65.742,202.488 65.856 C 202.053 65.970,201.697 66.205,201.697 66.378 C 201.697 66.798,199.035 69.369,198.600 69.369 C 198.413 69.369,198.345 69.508,198.450 69.678 C 198.556 69.849,198.396 70.462,198.096 71.041 C 197.456 72.274,197.313 79.171,197.926 79.171 C 198.134 79.171,198.303 79.554,198.303 80.023 C 198.303 80.511,198.787 81.275,199.434 81.810 C 200.192 82.436,200.566 83.087,200.566 83.785 C 200.566 84.569,200.749 84.826,201.308 84.826 C 201.853 84.826,201.987 85.000,201.813 85.485 C 201.683 85.848,201.717 86.018,201.889 85.862 C 202.060 85.706,202.511 85.859,202.891 86.203 C 204.212 87.398,203.595 92.366,202.126 92.366 C 201.890 92.366,201.697 92.535,201.697 92.743 C 201.697 93.435,198.471 93.175,197.796 92.429 C 197.452 92.050,197.298 91.611,197.454 91.455 C 197.610 91.299,197.568 91.206,197.361 91.248 C 196.563 91.409,196.041 91.216,196.041 90.759 C 196.041 90.497,195.617 89.964,195.099 89.575 C 194.581 89.186,194.156 88.626,194.156 88.332 C 194.156 88.038,194.009 87.888,193.830 87.999 C 193.368 88.284,192.315 87.024,192.158 86.000 C 192.086 85.527,191.854 85.027,191.642 84.889 C 191.430 84.750,191.142 84.171,191.003 83.600 C 190.863 83.030,190.583 82.564,190.379 82.564 C 190.176 82.564,190.009 81.867,190.009 81.015 C 190.009 79.794,189.890 79.513,189.444 79.684 C 188.964 79.868,188.878 79.313,188.878 76.000 C 188.878 72.993,189.008 71.992,189.444 71.631 C 189.804 71.332,190.009 70.498,190.009 69.334 C 190.009 67.865,190.120 67.550,190.575 67.724 C 190.984 67.881,191.140 67.682,191.140 67.004 C 191.140 66.489,191.385 65.865,191.684 65.617 C 191.982 65.369,192.279 64.712,192.343 64.157 C 192.414 63.544,192.793 63.002,193.308 62.776 C 193.900 62.516,194.156 62.081,194.156 61.340 C 194.156 60.682,194.310 60.371,194.559 60.525 C 194.780 60.661,195.051 60.429,195.161 60.007 C 195.282 59.545,195.571 59.322,195.890 59.444 C 196.208 59.566,196.418 59.406,196.418 59.041 C 196.418 58.708,196.687 58.435,197.015 58.435 C 197.344 58.435,197.545 58.234,197.463 57.988 C 197.299 57.495,198.460 56.173,199.057 56.173 C 199.265 56.173,199.434 55.919,199.434 55.608 C 199.434 55.297,199.562 55.082,199.717 55.130 C 200.285 55.306,201.697 53.721,201.697 52.907 C 201.697 52.447,201.866 51.966,202.074 51.838 C 202.597 51.514,202.565 44.964,202.039 44.789 C 201.812 44.713,201.600 44.212,201.568 43.675 C 201.530 43.063,201.332 42.765,201.037 42.878 C 200.757 42.985,200.566 42.754,200.566 42.311 C 200.566 41.899,200.311 41.351,200.000 41.093 C 199.689 40.835,199.434 40.390,199.434 40.105 C 199.434 39.819,199.242 39.585,199.007 39.585 C 198.407 39.585,196.807 37.713,196.350 36.475 C 196.140 35.905,195.735 35.438,195.451 35.438 C 195.146 35.438,195.023 35.206,195.151 34.873 C 195.289 34.515,195.146 34.307,194.762 34.307 C 194.429 34.307,194.156 34.053,194.156 33.742 C 194.156 33.431,193.902 33.176,193.591 33.176 C 193.280 33.176,193.025 32.912,193.025 32.588 C 193.025 32.265,192.856 32.106,192.648 32.234 C 192.328 32.432,192.079 31.377,192.227 30.443 C 192.251 30.287,192.017 30.160,191.706 30.160 C 191.325 30.160,191.140 29.779,191.140 28.989 C 191.140 28.103,191.003 27.870,190.575 28.035 C 190.070 28.228,189.732 26.638,189.965 25.165 C 189.989 25.009,189.755 24.882,189.444 24.882 C 188.612 24.882,188.612 16.525,189.444 15.834 C 189.755 15.576,190.009 14.949,190.009 14.442 C 190.009 13.934,190.264 13.264,190.575 12.953 C 190.886 12.642,191.140 12.060,191.140 11.660 C 191.140 11.260,191.395 10.933,191.706 10.933 C 192.017 10.933,192.229 10.721,192.177 10.462 C 192.125 10.203,192.259 10.021,192.474 10.058 C 192.689 10.095,192.901 9.698,192.944 9.176 C 193.043 7.981,193.353 7.465,193.806 7.745 C 193.999 7.864,194.156 7.697,194.156 7.374 C 194.156 7.051,194.421 6.786,194.744 6.786 C 195.067 6.786,195.246 6.647,195.141 6.476 C 194.792 5.913,198.167 3.364,198.893 3.643 C 199.225 3.770,199.434 3.617,199.434 3.245 C 199.434 2.460,199.989 2.476,200.938 3.288 M240.052 28.153 C 239.687 28.251,239.484 28.489,239.603 28.681 C 239.721 28.872,239.501 29.029,239.113 29.029 C 238.724 29.029,237.919 29.538,237.323 30.160 C 236.727 30.782,236.059 31.292,235.839 31.292 C 235.619 31.293,235.106 31.790,234.699 32.397 C 234.293 33.003,233.826 33.417,233.662 33.316 C 233.499 33.215,233.365 33.396,233.365 33.720 C 233.365 34.043,233.110 34.307,232.799 34.307 C 232.427 34.307,232.234 34.680,232.234 35.398 C 232.234 36.020,231.991 36.582,231.668 36.706 C 231.357 36.825,231.103 37.249,231.103 37.648 C 231.103 38.047,230.848 38.471,230.537 38.591 C 230.167 38.733,229.972 39.320,229.972 40.287 C 229.972 41.272,229.777 41.841,229.391 41.989 C 228.568 42.305,228.615 53.744,229.441 54.061 C 229.760 54.183,229.972 54.800,229.972 55.608 C 229.972 56.454,230.181 57.031,230.537 57.168 C 230.848 57.287,231.103 57.791,231.103 58.287 C 231.103 58.838,231.323 59.189,231.668 59.189 C 232.045 59.189,232.234 59.566,232.234 60.320 C 232.234 60.943,232.403 61.451,232.611 61.451 C 233.127 61.451,234.484 62.846,234.222 63.108 C 234.106 63.224,234.290 63.426,234.630 63.556 C 234.971 63.687,235.250 64.030,235.250 64.319 C 235.250 64.608,235.486 64.844,235.774 64.844 C 236.063 64.844,236.405 65.269,236.536 65.787 C 236.666 66.305,236.939 66.730,237.142 66.730 C 237.345 66.730,237.512 66.984,237.512 67.295 C 237.512 67.606,237.694 67.861,237.916 67.861 C 238.438 67.861,239.397 68.820,239.397 69.342 C 239.397 69.564,239.631 69.746,239.918 69.746 C 240.205 69.746,240.533 70.102,240.647 70.537 C 240.761 70.974,241.035 71.218,241.256 71.081 C 241.508 70.925,241.659 71.264,241.659 71.985 C 241.659 72.759,241.845 73.139,242.224 73.139 C 242.664 73.139,242.790 73.640,242.790 75.389 C 242.790 77.234,242.688 77.600,242.224 77.422 C 241.796 77.258,241.659 77.490,241.659 78.376 C 241.659 79.020,241.501 79.548,241.307 79.548 C 241.114 79.548,240.851 79.878,240.722 80.282 C 240.566 80.776,240.279 80.942,239.849 80.788 C 239.496 80.662,239.337 80.700,239.494 80.873 C 239.846 81.260,238.283 82.996,237.834 82.718 C 237.657 82.609,237.512 82.868,237.512 83.295 C 237.512 83.734,237.266 84.072,236.946 84.072 C 236.594 84.072,236.381 84.428,236.381 85.014 C 236.381 85.601,236.167 85.957,235.815 85.957 C 235.504 85.957,235.250 86.139,235.250 86.363 C 235.250 86.890,233.167 88.973,232.640 88.973 C 232.416 88.973,232.234 89.461,232.234 90.058 C 232.234 90.654,231.979 91.354,231.668 91.612 C 231.357 91.870,231.103 92.301,231.103 92.569 C 231.103 92.837,230.931 93.114,230.722 93.184 C 230.513 93.254,230.203 94.074,230.035 95.006 C 229.865 95.946,229.538 96.661,229.300 96.612 C 228.991 96.548,228.876 98.277,228.890 102.738 C 228.907 107.820,229.008 108.954,229.441 108.954 C 229.809 108.954,229.972 109.417,229.972 110.462 C 229.972 111.551,230.129 111.970,230.537 111.970 C 231.053 111.970,231.251 112.500,231.204 113.761 C 231.194 114.020,231.422 114.232,231.710 114.232 C 232.205 114.232,232.410 114.921,232.253 116.060 C 232.215 116.340,232.334 116.476,232.518 116.363 C 232.885 116.136,234.348 117.639,234.206 118.096 C 234.158 118.252,234.476 118.379,234.913 118.379 C 235.464 118.379,235.641 118.552,235.490 118.944 C 235.358 119.289,235.490 119.510,235.827 119.510 C 236.132 119.510,236.381 119.680,236.381 119.887 C 236.381 120.094,236.635 120.264,236.946 120.264 C 237.266 120.264,237.512 120.601,237.512 121.040 C 237.512 121.467,237.683 121.711,237.891 121.582 C 238.100 121.453,238.373 121.612,238.497 121.937 C 238.649 122.331,239.208 122.526,240.191 122.526 C 241.147 122.526,241.659 122.698,241.659 123.018 C 241.659 123.325,242.224 123.543,243.167 123.598 C 244.312 123.666,244.675 123.548,244.675 123.107 C 244.675 122.706,245.045 122.526,245.869 122.526 C 246.525 122.526,246.971 122.434,246.858 122.321 C 246.597 122.061,249.057 119.510,249.569 119.510 C 249.803 119.510,249.953 118.106,249.953 115.928 C 249.953 112.996,249.850 112.347,249.387 112.347 C 249.076 112.347,248.822 112.092,248.822 111.781 C 248.822 111.470,248.557 111.216,248.234 111.216 C 247.911 111.216,247.740 111.064,247.855 110.878 C 247.970 110.693,247.810 110.444,247.500 110.325 C 247.190 110.206,246.937 109.688,246.937 109.175 C 246.937 108.528,246.619 108.089,245.900 107.745 C 245.166 107.394,244.808 106.888,244.675 106.013 C 244.571 105.333,244.317 104.786,244.109 104.796 C 243.902 104.807,243.681 103.880,243.619 102.738 C 243.534 101.164,243.633 100.660,244.029 100.660 C 244.379 100.660,244.571 100.153,244.611 99.127 C 244.663 97.800,245.321 96.513,245.948 96.513 C 246.056 96.513,246.602 96.089,247.161 95.570 C 247.720 95.052,248.042 94.628,247.876 94.628 C 247.710 94.628,247.881 94.288,248.256 93.874 C 248.632 93.459,249.167 93.120,249.446 93.120 C 249.760 93.120,249.953 92.681,249.953 91.966 C 249.953 91.245,250.104 90.906,250.355 91.062 C 250.578 91.199,250.853 90.947,250.970 90.497 C 251.098 90.008,251.388 89.763,251.699 89.882 C 251.991 89.994,252.215 89.840,252.215 89.526 C 252.215 89.222,252.488 88.973,252.821 88.973 C 253.189 88.973,253.346 88.763,253.222 88.438 C 253.109 88.144,253.260 87.811,253.558 87.696 C 253.856 87.582,254.100 87.041,254.100 86.494 C 254.100 85.753,254.248 85.556,254.681 85.722 C 255.021 85.852,255.236 85.752,255.201 85.479 C 255.060 84.381,255.265 83.695,255.735 83.695 C 256.065 83.695,256.260 83.149,256.301 82.107 C 256.339 81.112,256.582 80.397,256.951 80.191 C 257.763 79.736,257.683 69.969,256.870 70.281 C 256.496 70.424,256.362 70.077,256.362 68.968 C 256.362 67.975,256.169 67.386,255.796 67.243 C 255.410 67.094,255.231 66.490,255.231 65.329 C 255.231 63.976,255.116 63.677,254.665 63.850 C 254.277 63.999,254.100 63.827,254.100 63.302 C 254.100 62.882,253.930 62.643,253.723 62.771 C 253.402 62.969,253.154 61.914,253.301 60.980 C 253.326 60.825,253.219 60.718,253.063 60.742 C 252.321 60.859,251.838 60.654,251.838 60.221 C 251.838 59.960,251.414 59.427,250.895 59.038 C 250.377 58.648,249.953 58.089,249.953 57.795 C 249.953 57.501,249.808 57.350,249.631 57.459 C 249.216 57.715,247.601 56.012,247.939 55.674 C 248.079 55.534,247.826 55.419,247.377 55.419 C 246.902 55.419,246.560 55.183,246.560 54.854 C 246.560 54.543,246.401 54.288,246.208 54.288 C 246.014 54.288,245.802 53.822,245.737 53.252 C 245.670 52.669,245.411 52.256,245.146 52.309 C 244.853 52.368,244.675 51.976,244.675 51.272 C 244.675 50.502,244.488 50.141,244.091 50.141 C 243.617 50.141,243.528 49.729,243.619 47.974 C 243.697 46.486,243.880 45.835,244.204 45.900 C 244.508 45.961,244.675 45.532,244.675 44.687 C 244.675 43.679,244.805 43.429,245.240 43.596 C 245.655 43.755,245.806 43.547,245.806 42.815 C 245.806 42.141,246.296 41.351,247.314 40.383 C 248.163 39.575,248.822 38.593,248.822 38.136 C 248.822 37.665,249.060 37.323,249.387 37.323 C 249.843 37.323,249.953 36.737,249.953 34.307 C 249.953 31.878,249.843 31.291,249.387 31.291 C 249.076 31.291,248.822 30.973,248.822 30.583 C 248.822 30.194,248.573 29.669,248.268 29.416 C 247.964 29.164,247.752 28.761,247.797 28.522 C 247.881 28.079,241.458 27.772,240.052 28.153 M150.969 29.883 C 150.773 30.313,150.276 30.848,149.864 31.072 C 149.453 31.296,148.898 31.768,148.631 32.121 C 148.364 32.474,147.895 33.013,147.588 33.319 C 147.282 33.626,147.031 34.228,147.031 34.657 C 147.031 35.100,146.786 35.438,146.466 35.438 C 146.089 35.438,145.900 35.815,145.900 36.569 C 145.900 37.273,145.722 37.665,145.429 37.606 C 145.132 37.547,144.913 38.053,144.837 38.978 C 144.771 39.785,144.474 40.688,144.178 40.985 C 143.881 41.281,143.638 42.011,143.638 42.606 C 143.638 43.201,143.468 43.793,143.261 43.921 C 143.051 44.051,142.884 45.802,142.884 47.879 C 142.884 49.956,143.051 51.708,143.261 51.838 C 143.468 51.966,143.638 52.994,143.638 54.122 C 143.638 55.694,143.770 56.173,144.204 56.173 C 144.728 56.173,144.945 56.827,144.797 57.964 C 144.764 58.223,144.998 58.435,145.318 58.435 C 145.865 58.435,146.080 59.092,145.920 60.264 C 145.881 60.544,146.006 60.676,146.197 60.558 C 146.653 60.277,148.255 61.987,147.883 62.359 C 147.725 62.517,147.851 62.589,148.162 62.520 C 148.560 62.431,148.763 62.766,148.848 63.650 C 148.931 64.510,149.126 64.844,149.471 64.712 C 149.760 64.601,150.058 64.845,150.173 65.286 C 150.283 65.707,150.554 65.939,150.776 65.803 C 150.997 65.666,151.178 65.818,151.178 66.142 C 151.178 66.465,151.433 66.730,151.744 66.730 C 152.055 66.730,152.309 66.984,152.309 67.295 C 152.309 67.606,152.574 67.861,152.897 67.861 C 153.220 67.861,153.386 68.020,153.266 68.214 C 153.146 68.409,153.289 68.706,153.584 68.874 C 153.880 69.042,154.184 69.604,154.261 70.123 C 154.338 70.641,154.609 71.023,154.863 70.971 C 155.256 70.891,155.523 71.883,155.370 72.856 C 155.345 73.011,155.580 73.139,155.891 73.139 C 156.672 73.139,156.672 76.260,155.891 76.909 C 155.580 77.167,155.325 77.793,155.325 78.301 C 155.325 78.809,155.071 79.479,154.760 79.790 C 154.449 80.101,154.194 80.683,154.194 81.083 C 154.194 81.482,153.940 81.810,153.629 81.810 C 153.318 81.810,153.106 82.022,153.157 82.281 C 153.209 82.540,153.040 82.710,152.780 82.658 C 152.521 82.606,152.309 82.818,152.309 83.129 C 152.309 83.440,152.047 83.695,151.727 83.695 C 151.382 83.695,151.190 83.963,151.256 84.354 C 151.332 84.811,151.157 84.978,150.685 84.898 C 150.207 84.817,150.039 84.985,150.120 85.464 C 150.200 85.935,150.032 86.111,149.576 86.034 C 149.108 85.956,148.914 86.176,148.910 86.788 C 148.904 87.692,146.806 90.362,146.231 90.198 C 146.049 90.146,145.900 90.540,145.900 91.073 C 145.900 91.606,145.646 92.297,145.335 92.608 C 145.024 92.919,144.769 93.750,144.769 94.454 C 144.769 95.324,144.618 95.677,144.298 95.554 C 143.966 95.427,143.792 95.959,143.710 97.357 C 143.645 98.448,143.433 99.501,143.238 99.698 C 143.043 99.895,142.884 101.516,142.884 103.299 C 142.884 105.082,143.043 106.702,143.238 106.899 C 143.433 107.096,143.644 108.127,143.708 109.189 C 143.789 110.550,143.963 111.067,144.296 110.940 C 144.577 110.832,144.769 111.061,144.769 111.506 C 144.769 111.918,145.024 112.466,145.335 112.724 C 145.646 112.982,145.900 113.681,145.900 114.278 C 145.900 114.918,146.084 115.324,146.349 115.269 C 146.596 115.217,146.868 115.514,146.953 115.928 C 147.039 116.343,147.346 116.951,147.636 117.278 C 147.926 117.606,148.036 118.002,147.880 118.158 C 147.724 118.314,147.766 118.407,147.974 118.366 C 148.915 118.176,149.361 118.413,149.141 118.986 C 148.974 119.421,149.070 119.532,149.477 119.375 C 149.817 119.245,150.047 119.368,150.047 119.680 C 150.047 119.968,150.556 120.316,151.178 120.452 C 151.813 120.592,152.309 120.945,152.309 121.259 C 152.309 121.565,152.480 121.711,152.689 121.582 C 152.898 121.453,153.170 121.612,153.295 121.937 C 153.419 122.261,153.901 122.526,154.365 122.526 C 155.226 122.526,156.456 123.577,156.456 124.313 C 156.456 124.992,157.520 124.617,158.643 123.541 C 159.225 122.983,159.915 122.526,160.175 122.526 C 160.435 122.526,160.543 122.356,160.415 122.149 C 160.287 121.942,160.519 121.772,160.931 121.772 C 161.343 121.772,161.935 121.517,162.246 121.206 C 162.557 120.895,162.993 120.641,163.215 120.641 C 163.476 120.641,163.619 119.300,163.619 116.871 C 163.619 114.056,163.500 113.125,163.148 113.195 C 162.883 113.248,162.625 112.836,162.557 112.253 C 162.487 111.638,162.209 111.216,161.875 111.216 C 161.566 111.216,161.411 111.057,161.531 110.862 C 161.652 110.667,161.508 110.371,161.213 110.202 C 160.917 110.034,160.613 109.472,160.536 108.954 C 160.460 108.435,160.189 108.054,159.934 108.106 C 159.511 108.192,159.325 107.632,159.371 106.409 C 159.381 106.150,159.153 105.938,158.865 105.938 C 158.453 105.938,158.341 105.134,158.341 102.168 C 158.341 99.068,158.442 98.398,158.907 98.398 C 159.218 98.398,159.452 98.270,159.428 98.115 C 159.300 97.307,159.508 96.109,159.755 96.232 C 159.910 96.309,160.413 95.980,160.872 95.500 C 161.332 95.020,161.597 94.628,161.461 94.628 C 161.326 94.628,161.579 94.288,162.024 93.874 C 162.469 93.459,163.010 93.120,163.226 93.120 C 163.442 93.120,163.619 92.938,163.619 92.716 C 163.619 92.194,164.578 91.235,165.100 91.235 C 165.322 91.235,165.504 90.992,165.504 90.695 C 165.504 90.398,165.846 90.046,166.264 89.913 C 166.681 89.781,166.926 89.515,166.807 89.323 C 166.688 89.130,166.855 88.973,167.179 88.973 C 167.502 88.973,167.746 88.845,167.722 88.690 C 167.557 87.650,167.847 86.711,168.332 86.711 C 168.684 86.711,168.897 86.355,168.897 85.768 C 168.897 85.182,169.111 84.826,169.463 84.826 C 169.882 84.826,170.028 84.386,170.028 83.129 C 170.028 81.855,170.172 81.433,170.608 81.433 C 171.105 81.433,171.180 80.631,171.139 75.750 C 171.099 71.032,171.000 70.103,170.559 70.272 C 170.157 70.426,170.028 70.110,170.028 68.968 C 170.028 67.975,169.835 67.386,169.463 67.243 C 169.140 67.119,168.897 66.557,168.897 65.935 C 168.897 65.217,168.704 64.844,168.332 64.844 C 167.952 64.844,167.766 64.465,167.766 63.691 C 167.766 63.018,167.609 62.635,167.389 62.771 C 167.069 62.969,166.820 61.914,166.968 60.980 C 166.992 60.825,166.673 60.697,166.258 60.697 C 165.844 60.697,165.504 60.516,165.504 60.294 C 165.504 59.772,164.545 58.812,164.023 58.812 C 163.801 58.812,163.619 58.463,163.619 58.036 C 163.619 57.609,163.480 57.346,163.309 57.451 C 162.866 57.725,161.693 56.247,161.624 55.327 C 161.591 54.900,161.276 54.475,160.922 54.382 C 160.556 54.287,160.366 53.986,160.481 53.686 C 160.603 53.368,160.443 53.157,160.078 53.157 C 159.745 53.157,159.472 52.924,159.472 52.638 C 159.472 52.352,159.218 51.908,158.907 51.649 C 158.581 51.379,158.341 50.556,158.341 49.706 C 158.341 48.744,158.145 48.157,157.776 48.016 C 157.465 47.896,157.210 47.581,157.210 47.314 C 157.210 47.047,157.465 46.731,157.776 46.612 C 158.087 46.493,158.341 45.966,158.341 45.441 C 158.341 44.844,158.553 44.486,158.907 44.486 C 159.259 44.486,159.472 44.130,159.472 43.544 C 159.472 42.957,159.686 42.601,160.038 42.601 C 160.349 42.601,160.603 42.347,160.603 42.036 C 160.603 41.725,160.868 41.470,161.191 41.470 C 161.514 41.470,161.680 41.311,161.560 41.116 C 161.440 40.922,161.583 40.625,161.879 40.457 C 162.174 40.288,162.478 39.727,162.555 39.208 C 162.632 38.690,162.903 38.308,163.157 38.360 C 163.411 38.412,163.619 38.200,163.619 37.889 C 163.619 37.578,163.849 37.323,164.130 37.323 C 164.927 37.323,164.998 31.740,164.205 31.435 C 163.883 31.312,163.619 30.974,163.619 30.685 C 163.619 30.397,163.437 30.160,163.215 30.160 C 162.993 30.160,162.550 29.899,162.230 29.579 C 161.224 28.573,151.447 28.837,150.969 29.883 M245.052 30.979 C 245.570 31.057,245.952 31.329,245.900 31.583 C 245.848 31.837,246.060 32.045,246.371 32.045 C 247.561 32.045,247.116 36.090,245.806 37.193 C 245.184 37.716,244.675 38.469,244.675 38.865 C 244.675 39.261,244.505 39.585,244.298 39.585 C 244.090 39.585,243.921 39.755,243.921 39.962 C 243.921 40.451,242.525 41.847,242.036 41.847 C 241.828 41.847,241.659 42.526,241.659 43.355 C 241.659 44.382,241.494 44.863,241.141 44.863 C 240.347 44.863,240.292 50.983,241.079 51.770 C 241.398 52.089,241.659 52.804,241.659 53.359 C 241.659 54.102,241.808 54.312,242.224 54.152 C 242.609 54.004,242.790 54.172,242.790 54.677 C 242.790 55.085,242.998 55.377,243.252 55.325 C 243.506 55.273,243.774 55.623,243.847 56.102 C 243.920 56.581,244.210 57.062,244.492 57.170 C 244.781 57.281,244.904 57.628,244.774 57.967 C 244.607 58.401,244.707 58.504,245.138 58.338 C 245.527 58.189,245.797 58.362,245.922 58.839 C 246.027 59.239,246.377 59.566,246.701 59.566 C 247.096 59.566,247.211 59.774,247.049 60.194 C 246.893 60.601,246.956 60.730,247.228 60.562 C 247.659 60.295,250.330 62.695,250.330 63.349 C 250.330 63.549,250.488 63.713,250.682 63.713 C 250.875 63.713,251.087 64.180,251.153 64.750 C 251.220 65.333,251.479 65.746,251.744 65.693 C 252.037 65.634,252.215 66.026,252.215 66.730 C 252.215 67.484,252.403 67.861,252.780 67.861 C 253.174 67.861,253.346 68.256,253.346 69.158 C 253.346 69.871,253.516 70.560,253.723 70.688 C 253.940 70.822,254.100 72.821,254.100 75.401 C 254.100 77.980,253.940 79.979,253.723 80.113 C 253.516 80.241,253.346 80.948,253.346 81.684 C 253.346 82.718,253.218 82.972,252.780 82.804 C 252.356 82.641,252.215 82.867,252.215 83.706 C 252.215 84.464,252.027 84.826,251.633 84.826 C 251.288 84.826,251.096 85.094,251.162 85.485 C 251.237 85.935,251.062 86.110,250.613 86.034 C 250.137 85.954,249.953 86.176,249.953 86.828 C 249.953 87.325,249.529 88.189,249.010 88.749 C 248.492 89.308,248.068 89.945,248.068 90.163 C 248.068 90.382,247.813 90.464,247.502 90.344 C 247.191 90.225,246.937 90.306,246.937 90.525 C 246.937 90.744,246.018 91.820,244.896 92.916 C 243.773 94.012,242.794 95.312,242.719 95.805 C 242.645 96.298,242.375 96.659,242.121 96.607 C 241.836 96.549,241.659 96.955,241.659 97.666 C 241.659 98.300,241.507 98.726,241.322 98.611 C 240.794 98.285,240.495 100.079,240.565 103.136 C 240.614 105.219,240.762 105.938,241.145 105.938 C 241.442 105.938,241.659 106.336,241.659 106.880 C 241.659 107.424,241.854 107.783,242.121 107.729 C 242.375 107.677,242.640 108.004,242.709 108.455 C 242.778 108.907,243.079 109.479,243.378 109.727 C 243.677 109.974,243.921 110.397,243.921 110.665 C 243.921 110.933,244.098 111.212,244.315 111.284 C 244.531 111.356,244.737 111.795,244.772 112.258 C 244.813 112.811,245.081 113.101,245.549 113.101 C 246.029 113.101,246.192 113.286,246.047 113.666 C 245.914 114.011,246.046 114.232,246.383 114.232 C 248.159 114.232,245.995 119.466,244.204 119.504 C 244.048 119.507,243.921 119.764,243.921 120.075 C 243.921 120.395,243.583 120.641,243.145 120.641 C 242.718 120.641,242.470 120.476,242.594 120.275 C 242.719 120.074,242.347 119.793,241.768 119.651 C 241.190 119.510,240.603 119.220,240.465 119.009 C 240.326 118.797,239.847 118.567,239.399 118.499 C 238.332 118.336,237.481 117.457,237.404 116.440 C 237.370 115.992,237.053 115.549,236.699 115.457 C 236.333 115.361,236.143 115.061,236.259 114.760 C 236.381 114.442,236.220 114.232,235.856 114.232 C 235.461 114.232,235.250 113.904,235.250 113.289 C 235.250 112.745,235.054 112.387,234.787 112.441 C 234.533 112.493,234.269 112.166,234.199 111.714 C 234.130 111.263,233.829 110.691,233.531 110.443 C 233.232 110.195,232.988 109.430,232.988 108.741 C 232.988 108.053,232.818 107.385,232.611 107.257 C 232.395 107.124,232.234 105.180,232.234 102.711 C 232.234 100.087,232.381 98.398,232.611 98.398 C 232.818 98.398,232.988 97.737,232.988 96.930 C 232.988 96.006,233.187 95.386,233.526 95.256 C 233.822 95.142,234.119 94.573,234.186 93.990 C 234.255 93.390,234.512 92.972,234.779 93.025 C 235.073 93.084,235.250 92.688,235.250 91.966 C 235.250 91.332,235.411 90.913,235.608 91.034 C 235.805 91.156,236.076 90.669,236.210 89.952 C 236.395 88.969,236.601 88.704,237.049 88.876 C 237.453 89.031,237.584 88.932,237.460 88.567 C 237.359 88.272,237.838 87.484,238.525 86.816 C 239.212 86.148,239.774 85.719,239.774 85.863 C 239.774 86.007,240.273 85.578,240.884 84.910 C 241.494 84.241,242.191 83.695,242.432 83.695 C 242.673 83.695,242.778 83.454,242.665 83.160 C 242.553 82.866,242.704 82.532,243.002 82.418 C 243.300 82.304,243.544 81.866,243.544 81.444 C 243.544 81.005,243.792 80.679,244.126 80.679 C 244.446 80.679,244.680 80.467,244.647 80.207 C 244.505 79.117,244.706 78.417,245.161 78.417 C 245.943 78.417,246.043 72.829,245.266 72.531 C 244.918 72.397,244.675 71.856,244.675 71.213 C 244.675 70.495,244.482 70.123,244.109 70.123 C 243.726 70.123,243.544 69.739,243.544 68.929 C 243.544 68.272,243.438 67.841,243.308 67.971 C 243.178 68.101,242.631 67.705,242.093 67.091 C 241.554 66.478,240.903 65.975,240.644 65.975 C 240.382 65.975,240.270 65.726,240.391 65.410 C 240.511 65.099,240.427 64.844,240.206 64.844 C 239.494 64.844,236.431 61.593,236.172 60.563 C 236.035 60.015,235.771 59.566,235.586 59.566 C 235.401 59.566,235.250 59.039,235.250 58.395 C 235.250 57.509,235.112 57.277,234.684 57.441 C 234.260 57.604,234.119 57.379,234.119 56.539 C 234.119 55.795,233.929 55.419,233.553 55.419 C 233.146 55.419,232.988 55.003,232.988 53.934 C 232.988 53.116,232.818 52.343,232.611 52.215 C 232.397 52.083,232.234 50.208,232.234 47.879 C 232.234 45.551,232.397 43.676,232.611 43.544 C 232.818 43.416,232.988 42.491,232.988 41.488 C 232.988 40.216,233.158 39.600,233.553 39.449 C 233.864 39.330,234.119 38.977,234.119 38.666 C 234.119 38.319,234.336 38.184,234.684 38.318 C 235.105 38.479,235.251 38.260,235.253 37.458 C 235.256 36.714,235.606 36.105,236.384 35.490 C 237.004 35.000,237.512 34.267,237.512 33.861 C 237.512 32.837,238.405 32.045,239.558 32.045 C 240.133 32.045,240.489 31.853,240.434 31.574 C 240.376 31.286,240.851 31.056,241.659 30.982 C 242.385 30.915,243.139 30.704,243.334 30.512 C 243.542 30.310,243.778 30.305,243.900 30.501 C 244.015 30.687,244.533 30.902,245.052 30.979 M156.456 31.480 C 156.456 31.914,156.938 32.045,158.530 32.045 C 160.183 32.045,160.603 32.168,160.603 32.651 C 160.603 33.045,160.809 33.178,161.191 33.031 C 161.671 32.847,161.758 33.066,161.663 34.216 C 161.590 35.098,161.369 35.591,161.074 35.533 C 160.780 35.474,160.603 35.870,160.603 36.592 C 160.603 37.264,160.446 37.648,160.226 37.512 C 160.019 37.384,159.849 37.523,159.849 37.823 C 159.849 38.122,159.493 38.460,159.057 38.573 C 158.621 38.687,158.377 38.961,158.514 39.183 C 158.651 39.404,158.498 39.585,158.175 39.585 C 157.773 39.585,157.587 39.943,157.587 40.716 C 157.587 41.470,157.399 41.847,157.022 41.847 C 156.711 41.847,156.456 42.102,156.456 42.413 C 156.456 42.724,156.195 42.978,155.876 42.978 C 155.381 42.978,155.304 43.717,155.348 48.068 C 155.388 52.160,155.502 53.157,155.927 53.157 C 156.421 53.157,156.630 53.833,156.483 54.954 C 156.449 55.217,156.556 55.389,156.721 55.338 C 157.172 55.198,158.709 56.638,158.488 56.995 C 158.383 57.165,158.664 57.304,159.113 57.304 C 159.684 57.304,159.865 57.475,159.713 57.870 C 159.581 58.214,159.712 58.435,160.050 58.435 C 160.573 58.435,160.782 59.111,160.620 60.277 C 160.579 60.565,160.771 60.724,161.046 60.631 C 161.321 60.538,162.092 61.024,162.760 61.711 C 163.428 62.398,163.852 62.965,163.703 62.971 C 163.553 62.978,163.711 63.197,164.054 63.457 C 164.397 63.718,164.740 64.349,164.817 64.859 C 164.894 65.370,165.165 65.745,165.419 65.693 C 165.702 65.635,165.881 66.036,165.881 66.730 C 165.881 67.484,166.070 67.861,166.447 67.861 C 166.938 67.861,167.276 69.582,167.057 70.971 C 167.032 71.126,167.224 71.211,167.484 71.159 C 167.836 71.089,167.981 72.271,168.060 75.872 C 168.150 79.981,168.082 80.679,167.589 80.679 C 167.155 80.679,167.012 81.108,167.012 82.415 C 167.012 83.858,166.909 84.113,166.405 83.919 C 165.970 83.752,165.859 83.848,166.016 84.256 C 166.162 84.637,166.005 84.826,165.540 84.826 C 165.054 84.826,164.844 85.103,164.844 85.748 C 164.844 86.255,164.569 86.946,164.232 87.283 C 163.895 87.620,163.619 88.138,163.619 88.434 C 163.619 88.730,163.450 88.973,163.242 88.973 C 163.035 88.973,162.865 89.198,162.865 89.472 C 162.865 90.120,161.191 91.697,160.858 91.364 C 160.718 91.224,160.603 91.392,160.603 91.737 C 160.603 92.083,160.339 92.366,160.015 92.366 C 159.692 92.366,159.491 92.493,159.569 92.648 C 159.752 93.017,158.079 94.616,157.800 94.338 C 157.683 94.221,157.587 94.408,157.587 94.753 C 157.587 95.099,157.333 95.382,157.022 95.382 C 156.649 95.382,156.456 95.754,156.456 96.472 C 156.456 97.094,156.213 97.656,155.891 97.780 C 155.432 97.956,155.325 98.844,155.325 102.487 C 155.325 106.018,155.446 107.077,155.891 107.446 C 156.202 107.704,156.456 108.413,156.456 109.022 C 156.456 109.711,156.608 110.035,156.859 109.881 C 157.080 109.744,157.354 109.986,157.467 110.420 C 157.580 110.853,157.823 111.114,158.007 111.001 C 158.294 110.824,158.525 111.935,158.386 112.818 C 158.361 112.974,158.596 113.101,158.907 113.101 C 159.260 113.101,159.472 113.458,159.472 114.055 C 159.472 114.580,159.727 115.107,160.038 115.227 C 160.426 115.376,160.603 115.982,160.603 117.163 C 160.603 118.108,160.493 118.771,160.358 118.636 C 160.223 118.501,159.923 118.650,159.691 118.967 C 159.459 119.284,158.891 119.572,158.428 119.607 C 157.966 119.642,157.587 119.889,157.587 120.156 C 157.587 120.423,157.238 120.641,156.811 120.641 C 156.384 120.641,156.140 120.471,156.268 120.264 C 156.396 120.057,156.248 119.887,155.938 119.887 C 155.629 119.887,155.268 119.545,155.135 119.127 C 155.002 118.710,154.772 118.443,154.623 118.535 C 154.161 118.821,151.932 117.560,151.932 117.012 C 151.932 116.727,151.678 116.494,151.367 116.494 C 151.056 116.494,150.844 116.345,150.895 116.162 C 150.947 115.980,150.523 115.394,149.953 114.861 C 149.383 114.327,148.916 113.543,148.916 113.119 C 148.916 112.684,148.669 112.347,148.351 112.347 C 147.945 112.347,147.785 111.932,147.785 110.879 C 147.785 109.922,147.588 109.336,147.220 109.194 C 146.846 109.051,146.654 108.461,146.654 107.458 C 146.654 106.622,146.484 105.938,146.277 105.938 C 146.062 105.938,145.900 104.807,145.900 103.299 C 145.900 101.847,146.061 100.660,146.258 100.660 C 146.455 100.660,146.667 99.684,146.730 98.492 C 146.807 97.005,146.990 96.354,147.314 96.418 C 147.621 96.480,147.785 96.040,147.785 95.153 C 147.785 94.099,147.912 93.842,148.351 94.010 C 148.762 94.168,148.916 93.966,148.916 93.269 C 148.916 92.743,149.171 92.057,149.482 91.746 C 149.793 91.435,150.047 90.854,150.047 90.454 C 150.047 90.047,150.306 89.727,150.635 89.727 C 150.958 89.727,151.118 89.557,150.990 89.350 C 150.861 89.142,151.021 88.973,151.344 88.973 C 151.668 88.973,151.932 88.803,151.932 88.596 C 151.932 88.388,152.271 87.879,152.686 87.465 C 153.101 87.050,153.610 86.711,153.817 86.711 C 154.025 86.711,154.194 86.446,154.194 86.123 C 154.194 85.800,154.364 85.640,154.571 85.768 C 154.779 85.896,154.948 85.756,154.948 85.457 C 154.948 85.158,155.305 84.820,155.740 84.706 C 156.176 84.593,156.439 84.349,156.325 84.164 C 156.211 83.980,156.364 83.355,156.664 82.776 C 156.964 82.197,157.210 81.506,157.210 81.241 C 157.210 80.976,157.465 80.662,157.776 80.542 C 158.145 80.401,158.341 79.814,158.341 78.852 C 158.341 78.002,158.581 77.179,158.907 76.909 C 159.289 76.591,159.472 75.738,159.472 74.270 C 159.472 72.801,159.289 71.948,158.907 71.631 C 158.596 71.372,158.341 70.758,158.341 70.265 C 158.341 69.772,158.191 69.369,158.008 69.369 C 157.534 69.369,156.416 67.571,156.351 66.704 C 156.317 66.260,156.017 65.975,155.582 65.975 C 155.102 65.975,154.939 65.790,155.084 65.410 C 155.217 65.066,155.085 64.844,154.748 64.844 C 154.443 64.844,154.194 64.595,154.194 64.291 C 154.194 63.954,153.973 63.822,153.629 63.954 C 153.236 64.105,153.063 63.928,153.063 63.377 C 153.063 62.940,152.936 62.622,152.780 62.670 C 152.342 62.806,150.816 61.356,151.031 61.007 C 151.136 60.837,150.958 60.697,150.635 60.697 C 150.257 60.697,150.047 60.356,150.047 59.743 C 150.047 59.218,149.793 58.691,149.482 58.572 C 149.171 58.452,148.916 57.949,148.916 57.453 C 148.916 56.902,148.696 56.550,148.351 56.550 C 148.040 56.550,147.785 56.232,147.785 55.843 C 147.785 55.453,147.531 54.924,147.220 54.665 C 146.909 54.407,146.654 53.633,146.654 52.945 C 146.654 52.257,146.484 51.589,146.277 51.461 C 146.070 51.333,145.900 50.060,145.900 48.633 C 145.900 47.206,146.070 45.934,146.277 45.806 C 146.484 45.678,146.654 44.668,146.654 43.562 C 146.654 42.122,146.815 41.489,147.220 41.334 C 147.531 41.215,147.785 40.693,147.785 40.174 C 147.785 39.472,147.936 39.290,148.379 39.460 C 148.756 39.605,148.946 39.497,148.900 39.165 C 148.743 38.040,148.938 37.323,149.401 37.323 C 149.668 37.323,149.914 36.965,149.947 36.527 C 149.980 36.089,150.270 35.440,150.592 35.084 C 150.915 34.728,151.178 34.193,151.178 33.896 C 151.178 33.386,152.036 32.772,153.534 32.206 C 153.897 32.069,154.194 31.723,154.194 31.436 C 154.194 31.108,154.614 30.914,155.325 30.914 C 156.079 30.914,156.456 31.103,156.456 31.480 M194.088 128.575 C 194.016 128.791,193.578 128.997,193.114 129.032 C 192.586 129.072,192.271 129.342,192.271 129.757 C 192.271 130.191,192.076 130.344,191.706 130.202 C 191.348 130.065,191.140 130.208,191.140 130.591 C 191.140 130.924,190.868 131.197,190.535 131.197 C 190.151 131.197,190.008 131.404,190.146 131.762 C 190.295 132.151,190.123 132.328,189.598 132.328 C 189.178 132.328,188.925 132.475,189.036 132.655 C 189.147 132.835,188.733 133.369,188.116 133.843 C 187.225 134.525,186.993 134.993,186.993 136.108 C 186.993 136.898,186.746 137.719,186.428 137.983 C 186.083 138.269,185.862 139.096,185.862 140.103 L 185.862 141.753 184.354 141.753 C 183.265 141.753,182.846 141.910,182.846 142.319 C 182.846 142.804,175.350 143.276,173.299 142.919 C 173.128 142.890,173.096 143.039,173.227 143.252 C 173.431 143.582,168.152 143.900,166.352 143.666 C 166.093 143.633,165.881 143.867,165.881 144.187 C 165.881 144.717,163.923 144.992,161.049 144.866 C 160.773 144.854,160.642 145.080,160.754 145.372 C 160.940 145.857,157.781 146.201,155.745 145.916 C 155.413 145.870,155.306 146.060,155.451 146.437 C 155.645 146.945,155.270 147.031,152.863 147.031 C 150.811 147.031,150.073 147.159,150.141 147.502 C 150.199 147.791,149.724 148.021,148.916 148.095 C 148.190 148.161,147.435 148.373,147.238 148.566 C 147.041 148.759,146.061 148.916,145.059 148.916 C 143.788 148.916,143.172 149.087,143.020 149.482 C 142.879 149.851,142.291 150.047,141.324 150.047 C 140.357 150.047,139.769 150.243,139.627 150.613 C 139.508 150.924,138.975 151.178,138.444 151.178 C 137.912 151.178,137.196 151.433,136.852 151.744 C 136.508 152.055,135.528 152.337,134.675 152.370 C 133.791 152.405,133.155 152.608,133.197 152.841 C 133.237 153.067,132.634 153.304,131.857 153.369 C 131.079 153.433,130.443 153.645,130.443 153.840 C 130.443 154.035,129.861 154.194,129.150 154.194 C 128.439 154.194,127.612 154.440,127.311 154.741 C 127.010 155.042,126.319 155.400,125.776 155.536 C 125.233 155.672,124.788 155.935,124.788 156.120 C 124.788 156.305,124.300 156.456,123.703 156.456 C 123.106 156.456,122.407 156.711,122.149 157.022 C 121.891 157.333,121.382 157.587,121.018 157.587 C 120.654 157.587,120.145 157.842,119.887 158.153 C 119.629 158.464,119.093 158.718,118.696 158.718 C 118.300 158.718,117.565 158.987,117.063 159.316 C 116.561 159.645,115.944 159.787,115.692 159.631 C 115.383 159.440,115.308 159.539,115.461 159.939 C 115.631 160.382,115.363 160.590,114.384 160.774 C 113.667 160.908,113.179 161.179,113.301 161.376 C 113.423 161.573,113.003 161.734,112.369 161.734 C 111.658 161.734,111.252 161.912,111.310 162.197 C 111.362 162.451,110.980 162.722,110.462 162.798 C 109.943 162.875,109.384 163.176,109.218 163.467 C 109.052 163.758,108.501 163.996,107.993 163.996 C 107.485 163.996,107.069 164.152,107.069 164.343 C 107.069 164.534,106.560 164.802,105.938 164.939 C 105.316 165.075,104.807 165.332,104.807 165.509 C 104.807 165.686,104.340 165.885,103.770 165.950 C 103.187 166.018,102.775 166.276,102.828 166.541 C 102.886 166.834,102.495 167.012,101.791 167.012 C 101.037 167.012,100.660 167.201,100.660 167.578 C 100.660 167.896,100.323 168.143,99.889 168.143 C 99.466 168.143,98.661 168.567,98.102 169.086 C 97.543 169.604,96.684 170.028,96.193 170.028 C 95.555 170.028,95.363 170.189,95.518 170.594 C 95.666 170.978,95.498 171.159,94.993 171.159 C 94.585 171.159,94.251 171.414,94.251 171.725 C 94.251 172.104,93.871 172.290,93.097 172.290 C 92.463 172.290,92.035 172.437,92.146 172.617 C 92.436 173.085,91.086 174.205,90.146 174.276 C 89.708 174.309,89.249 174.651,89.127 175.037 C 88.989 175.473,88.688 175.655,88.331 175.518 C 87.931 175.364,87.824 175.470,87.976 175.868 C 88.123 176.249,87.965 176.437,87.499 176.437 C 87.116 176.437,86.592 176.692,86.334 177.003 C 86.076 177.314,85.631 177.568,85.345 177.568 C 85.059 177.568,84.826 177.823,84.826 178.134 C 84.826 178.517,84.442 178.699,83.632 178.699 C 82.975 178.699,82.534 178.795,82.652 178.913 C 83.008 179.270,80.326 181.715,79.579 181.715 C 79.195 181.715,78.793 182.055,78.684 182.471 C 78.550 182.984,78.289 183.151,77.871 182.990 C 77.532 182.860,77.301 182.902,77.358 183.083 C 77.520 183.601,76.062 185.096,75.646 184.839 C 75.426 184.703,75.371 184.865,75.513 185.235 C 75.709 185.746,75.511 185.862,74.446 185.862 C 73.580 185.862,73.139 186.040,73.139 186.388 C 73.139 186.676,72.860 187.020,72.519 187.150 C 72.178 187.281,71.995 187.483,72.111 187.599 C 72.372 187.861,71.016 189.255,70.500 189.255 C 70.292 189.255,70.123 189.520,70.123 189.843 C 70.123 190.166,69.963 190.333,69.769 190.212 C 69.574 190.092,69.277 190.235,69.109 190.531 C 68.941 190.826,68.379 191.131,67.861 191.207 C 67.342 191.284,66.960 191.555,67.012 191.809 C 67.064 192.063,66.842 192.271,66.519 192.271 C 66.195 192.271,66.043 192.453,66.180 192.674 C 66.317 192.895,66.072 193.169,65.636 193.283 C 65.201 193.397,64.844 193.621,64.844 193.781 C 64.844 194.204,61.482 197.549,61.057 197.549 C 60.859 197.549,60.697 197.804,60.697 198.115 C 60.697 198.426,60.443 198.680,60.132 198.680 C 59.821 198.680,59.566 198.842,59.566 199.040 C 59.566 199.465,56.221 202.828,55.798 202.828 C 55.638 202.828,55.414 203.184,55.300 203.619 C 55.186 204.056,54.912 204.300,54.691 204.163 C 54.469 204.026,54.288 204.188,54.288 204.524 C 54.288 204.860,54.108 205.022,53.886 204.885 C 53.664 204.748,53.391 204.993,53.277 205.429 C 53.163 205.864,52.835 206.221,52.548 206.221 C 52.261 206.221,52.026 206.402,52.026 206.624 C 52.026 207.146,51.067 208.106,50.545 208.106 C 50.323 208.106,50.141 208.625,50.141 209.259 C 50.141 209.937,49.985 210.315,49.762 210.177 C 49.553 210.048,49.280 210.208,49.156 210.532 C 49.031 210.856,48.693 211.122,48.405 211.122 C 48.116 211.122,47.879 211.358,47.879 211.647 C 47.879 211.936,47.614 212.274,47.290 212.398 C 46.966 212.522,46.806 212.795,46.935 213.004 C 47.064 213.213,46.917 213.384,46.607 213.384 C 46.274 213.384,45.996 213.806,45.925 214.420 C 45.851 215.061,45.608 215.415,45.288 215.347 C 44.954 215.277,44.852 215.449,44.999 215.833 C 45.140 216.201,44.978 216.523,44.574 216.676 C 43.733 216.994,42.978 217.742,42.978 218.258 C 42.978 218.628,42.459 218.818,41.753 218.706 C 41.598 218.682,41.490 218.789,41.515 218.944 C 41.662 219.878,41.414 220.933,41.093 220.735 C 40.886 220.607,40.716 220.767,40.716 221.090 C 40.716 221.413,40.462 221.678,40.151 221.678 C 39.781 221.678,39.585 222.048,39.585 222.750 C 39.585 223.740,38.619 225.071,37.901 225.071 C 37.374 225.071,36.594 226.352,36.581 227.238 C 36.574 227.736,36.335 228.087,36.004 228.087 C 35.693 228.087,35.438 228.341,35.438 228.652 C 35.438 228.963,35.184 229.218,34.873 229.218 C 34.528 229.218,34.307 229.569,34.307 230.120 C 34.307 230.616,34.053 231.120,33.742 231.239 C 33.413 231.365,33.176 231.930,33.176 232.587 C 33.176 233.441,33.037 233.665,32.606 233.499 C 32.214 233.349,32.103 233.454,32.251 233.840 C 32.371 234.153,32.208 234.497,31.878 234.624 C 31.555 234.748,31.291 235.199,31.291 235.627 C 31.291 236.054,31.037 236.502,30.726 236.621 C 30.415 236.741,30.160 237.244,30.160 237.741 C 30.160 238.291,29.940 238.643,29.595 238.643 C 29.284 238.643,29.029 238.825,29.029 239.047 C 29.029 239.269,28.775 239.705,28.464 240.016 C 28.153 240.327,27.898 240.909,27.898 241.309 C 27.898 241.709,27.644 242.036,27.333 242.036 C 26.981 242.036,26.767 242.392,26.767 242.978 C 26.767 243.497,26.609 243.921,26.415 243.921 C 26.222 243.921,26.010 244.387,25.944 244.958 C 25.877 245.541,25.618 245.953,25.353 245.900 C 25.049 245.839,24.882 246.268,24.882 247.114 C 24.882 248.149,24.758 248.374,24.288 248.193 C 23.911 248.049,23.721 248.156,23.768 248.488 C 23.925 249.613,23.729 250.330,23.266 250.330 C 22.999 250.330,22.752 250.708,22.717 251.171 C 22.682 251.633,22.434 252.185,22.166 252.397 C 21.897 252.610,21.630 253.037,21.573 253.347 C 21.515 253.658,21.318 254.251,21.136 254.665 C 20.953 255.080,20.705 255.727,20.584 256.103 C 20.462 256.479,20.220 256.698,20.045 256.590 C 19.870 256.482,19.699 257.094,19.666 257.950 C 19.632 258.806,19.350 259.788,19.039 260.132 C 18.728 260.476,18.473 261.035,18.473 261.375 C 18.473 261.750,18.266 261.914,17.945 261.791 C 17.653 261.679,17.427 261.810,17.439 262.085 C 17.516 263.845,17.282 265.033,16.859 265.033 C 16.593 265.033,16.337 265.500,16.290 266.070 C 16.243 266.640,16.036 267.163,15.831 267.232 C 15.625 267.301,15.457 268.022,15.457 268.834 C 15.457 269.896,15.298 270.311,14.892 270.311 C 14.483 270.311,14.326 270.730,14.326 271.819 C 14.326 272.827,14.159 273.327,13.822 273.327 C 13.502 273.327,13.298 273.831,13.266 274.701 C 13.237 275.456,12.955 276.360,12.639 276.710 C 12.314 277.069,12.064 278.040,12.064 278.944 C 12.064 279.864,11.824 280.785,11.499 281.109 C 11.168 281.440,10.933 282.361,10.933 283.322 C 10.933 284.228,10.763 285.074,10.556 285.203 C 10.349 285.331,10.179 286.274,10.179 287.298 C 10.179 288.703,10.040 289.161,9.614 289.161 C 9.165 289.161,9.048 289.706,9.048 291.800 C 9.048 293.709,8.913 294.439,8.560 294.439 C 8.208 294.439,8.042 295.301,7.967 297.510 C 7.897 299.547,7.681 300.761,7.324 301.118 C 6.921 301.521,6.786 302.733,6.786 305.942 C 6.786 308.393,6.625 310.329,6.409 310.462 C 5.892 310.781,5.892 342.188,6.409 342.507 C 6.616 342.635,6.786 343.917,6.786 345.355 L 6.786 347.971 199.920 347.973 L 393.053 347.975 393.113 347.178 C 393.146 346.740,393.440 346.086,393.767 345.726 C 394.631 344.771,394.628 313.666,393.764 313.666 C 393.308 313.666,393.214 312.760,393.214 308.376 C 393.214 304.022,393.114 303.048,392.648 302.870 C 392.207 302.700,392.083 301.949,392.083 299.448 C 392.083 296.754,391.993 296.278,391.517 296.461 C 391.044 296.642,390.952 296.188,390.952 293.662 C 390.952 291.328,390.824 290.596,390.386 290.429 C 389.968 290.268,389.821 289.604,389.821 287.877 C 389.821 286.593,389.661 285.381,389.465 285.184 C 389.270 284.987,389.070 283.935,389.021 282.846 C 388.961 281.502,388.772 280.867,388.434 280.867 C 388.104 280.867,387.936 280.356,387.936 279.347 C 387.936 278.344,387.744 277.754,387.370 277.610 C 386.965 277.455,386.805 276.821,386.805 275.372 C 386.805 273.730,386.699 273.391,386.239 273.568 C 385.794 273.739,385.674 273.460,385.674 272.259 C 385.674 271.419,385.504 270.628,385.297 270.500 C 385.090 270.371,384.920 269.606,384.920 268.799 C 384.920 267.878,384.707 267.213,384.346 267.011 C 384.009 266.823,383.750 266.105,383.718 265.279 C 383.681 264.271,383.522 263.924,383.162 264.062 C 382.814 264.196,382.658 263.922,382.658 263.176 C 382.658 262.565,382.413 262.004,382.092 261.881 C 381.719 261.737,381.527 261.147,381.527 260.144 C 381.527 259.044,381.371 258.624,380.961 258.624 C 380.582 258.624,380.396 258.244,380.396 257.471 C 380.396 256.798,380.239 256.414,380.019 256.550 C 379.698 256.749,379.450 255.694,379.597 254.760 C 379.622 254.604,379.387 254.477,379.076 254.477 C 378.695 254.477,378.511 254.095,378.511 253.306 C 378.511 252.419,378.373 252.187,377.945 252.351 C 377.512 252.517,377.380 252.273,377.380 251.307 C 377.380 250.613,377.125 249.834,376.814 249.576 C 376.503 249.318,376.249 248.618,376.249 248.022 C 376.249 247.309,376.055 246.937,375.683 246.937 C 375.338 246.937,375.118 246.585,375.118 246.035 C 375.118 245.538,374.853 245.031,374.528 244.906 C 374.204 244.782,374.045 244.509,374.174 244.300 C 374.303 244.092,374.144 243.921,373.821 243.921 C 373.276 243.921,373.056 243.279,373.205 242.130 C 373.238 241.871,373.024 241.659,372.728 241.659 C 372.432 241.659,372.090 241.362,371.968 240.999 C 371.846 240.636,371.572 240.042,371.359 239.680 C 370.499 238.218,370.201 237.675,369.959 237.135 C 369.820 236.824,369.558 236.469,369.377 236.347 C 369.196 236.225,369.020 235.758,368.987 235.310 C 368.953 234.862,368.728 234.496,368.487 234.496 C 368.246 234.496,367.947 233.987,367.823 233.365 C 367.693 232.714,367.358 232.234,367.034 232.234 C 366.686 232.234,366.554 232.016,366.689 231.664 C 366.846 231.256,366.735 231.160,366.300 231.327 C 365.836 231.505,365.693 231.326,365.693 230.566 C 365.693 230.019,365.438 229.473,365.127 229.354 C 364.816 229.235,364.562 228.901,364.562 228.612 C 364.562 228.323,364.392 228.087,364.185 228.087 C 363.977 228.087,363.808 227.762,363.808 227.366 C 363.808 226.970,363.299 226.217,362.677 225.694 C 361.961 225.092,361.546 224.387,361.546 223.776 C 361.546 223.244,361.356 222.809,361.124 222.809 C 360.482 222.809,358.543 220.451,358.536 219.663 C 358.532 219.281,358.202 218.882,357.802 218.778 C 357.369 218.665,357.156 218.373,357.277 218.059 C 357.399 217.741,357.238 217.531,356.874 217.531 C 356.540 217.531,356.268 217.276,356.268 216.965 C 356.268 216.654,356.013 216.400,355.702 216.400 C 355.391 216.400,355.137 216.081,355.137 215.692 C 355.137 215.302,354.884 214.774,354.575 214.518 C 354.267 214.262,354.107 213.902,354.221 213.718 C 354.334 213.534,354.078 213.384,353.651 213.384 C 353.224 213.384,352.875 213.202,352.875 212.980 C 352.875 212.458,351.916 211.499,351.394 211.499 C 351.171 211.499,350.990 210.990,350.990 210.368 C 350.990 209.614,350.801 209.237,350.424 209.237 C 350.113 209.237,349.859 208.982,349.859 208.671 C 349.859 208.360,349.594 208.106,349.271 208.106 C 348.948 208.106,348.795 207.924,348.932 207.703 C 349.069 207.482,348.836 207.211,348.415 207.101 C 347.952 206.980,347.729 206.691,347.852 206.372 C 347.972 206.058,347.816 205.844,347.467 205.844 C 347.144 205.844,346.707 205.547,346.496 205.184 C 346.284 204.821,346.106 204.651,346.100 204.807 C 346.083 205.228,344.581 203.644,344.581 203.205 C 344.581 202.997,344.316 202.828,343.993 202.828 C 343.670 202.828,343.517 202.646,343.654 202.425 C 343.791 202.202,343.539 201.928,343.089 201.810 C 342.600 201.682,342.355 201.392,342.474 201.081 C 342.586 200.789,342.432 200.566,342.118 200.566 C 341.814 200.566,341.565 200.396,341.565 200.189 C 341.565 199.981,341.395 199.811,341.188 199.811 C 340.980 199.811,340.471 199.472,340.057 199.057 C 339.642 198.643,339.303 198.134,339.303 197.926 C 339.303 197.719,339.048 197.549,338.737 197.549 C 338.426 197.549,338.211 197.422,338.259 197.267 C 338.395 196.828,336.945 195.302,336.596 195.518 C 336.426 195.623,336.287 195.444,336.287 195.121 C 336.287 194.798,336.117 194.533,335.910 194.533 C 335.702 194.533,335.193 194.194,334.779 193.779 C 334.364 193.365,334.025 192.856,334.025 192.648 C 334.025 192.441,333.855 192.271,333.648 192.271 C 333.440 192.271,333.270 192.022,333.270 191.718 C 333.270 191.404,333.047 191.250,332.755 191.362 C 332.460 191.475,332.161 191.264,332.058 190.869 C 331.958 190.486,331.498 190.150,331.024 190.114 C 330.029 190.039,328.669 188.931,328.972 188.442 C 329.086 188.257,329.040 188.130,328.869 188.160 C 328.149 188.285,327.615 188.098,327.615 187.720 C 327.615 187.205,326.861 186.457,326.020 186.138 C 325.660 186.002,325.452 185.667,325.557 185.394 C 325.680 185.072,325.405 184.869,324.772 184.816 C 323.752 184.732,322.714 183.942,322.714 183.250 C 322.714 183.028,322.380 182.846,321.972 182.846 C 321.433 182.846,321.296 182.674,321.472 182.215 C 321.656 181.737,321.561 181.643,321.083 181.827 C 320.625 182.002,320.452 181.866,320.452 181.327 C 320.452 180.810,320.195 180.583,319.604 180.578 C 318.699 180.572,316.305 178.694,316.305 177.990 C 316.305 177.758,315.825 177.568,315.238 177.568 C 314.491 177.568,314.022 177.291,313.676 176.644 C 313.403 176.134,312.698 175.613,312.104 175.483 C 311.493 175.349,311.027 174.997,311.027 174.671 C 311.027 174.328,310.810 174.178,310.493 174.300 C 310.199 174.412,309.865 174.261,309.751 173.963 C 309.637 173.665,309.198 173.421,308.777 173.421 C 308.325 173.421,308.011 173.173,308.011 172.815 C 308.011 172.432,307.804 172.289,307.446 172.427 C 307.061 172.574,306.880 172.406,306.880 171.901 C 306.880 171.328,306.623 171.159,305.749 171.159 C 305.127 171.159,304.618 170.993,304.618 170.789 C 304.618 170.586,304.194 170.313,303.676 170.183 C 303.157 170.053,302.733 169.808,302.733 169.638 C 302.733 169.267,300.564 168.143,299.848 168.143 C 299.569 168.143,299.340 167.889,299.340 167.578 C 299.340 167.233,298.989 167.012,298.438 167.012 C 297.942 167.012,297.438 166.758,297.319 166.447 C 297.193 166.118,296.628 165.881,295.971 165.881 C 295.120 165.881,294.894 165.741,295.057 165.316 C 295.194 164.958,295.052 164.750,294.668 164.750 C 294.335 164.750,294.062 164.581,294.062 164.373 C 294.062 164.166,293.647 163.996,293.138 163.996 C 292.630 163.996,292.079 163.758,291.913 163.467 C 291.747 163.176,291.188 162.875,290.669 162.798 C 290.151 162.722,289.769 162.451,289.821 162.197 C 289.879 161.912,289.473 161.734,288.762 161.734 C 288.128 161.734,287.708 161.573,287.830 161.376 C 287.952 161.179,287.464 160.908,286.747 160.774 C 285.931 160.621,285.510 160.354,285.622 160.062 C 285.743 159.747,285.338 159.578,284.374 159.542 C 283.588 159.512,282.888 159.315,282.818 159.103 C 282.747 158.891,282.194 158.718,281.590 158.718 C 280.864 158.718,280.490 158.526,280.490 158.153 C 280.490 157.773,280.111 157.587,279.337 157.587 C 278.703 157.587,278.277 157.435,278.392 157.250 C 278.660 156.816,277.716 156.456,276.312 156.456 C 275.586 156.456,275.212 156.264,275.212 155.891 C 275.212 155.547,274.861 155.325,274.316 155.325 C 273.823 155.325,273.208 155.071,272.950 154.760 C 272.692 154.449,271.908 154.194,271.207 154.194 C 270.507 154.194,269.934 154.025,269.934 153.817 C 269.934 153.610,269.255 153.440,268.426 153.440 C 267.337 153.440,266.918 153.283,266.918 152.875 C 266.918 152.458,266.483 152.309,265.262 152.309 C 264.137 152.309,263.536 152.128,263.389 151.744 C 263.252 151.389,262.676 151.178,261.840 151.178 C 261.027 151.178,260.509 150.995,260.508 150.707 C 260.508 150.433,259.925 150.194,259.118 150.136 C 258.354 150.081,257.451 149.784,257.110 149.476 C 256.746 149.147,255.756 148.916,254.708 148.916 C 253.586 148.916,253.013 148.773,253.163 148.530 C 253.294 148.317,253.262 148.168,253.091 148.197 C 251.730 148.434,249.953 148.094,249.953 147.597 C 249.953 147.148,249.408 147.031,247.314 147.031 C 245.357 147.031,244.675 146.900,244.675 146.525 C 244.675 146.160,243.972 145.996,242.155 145.937 C 240.514 145.884,239.496 145.671,239.234 145.326 C 238.978 144.989,237.936 144.756,236.381 144.688 C 234.822 144.620,233.959 144.426,234.009 144.157 C 234.062 143.871,232.901 143.711,230.437 143.665 C 228.429 143.628,226.691 143.443,226.574 143.253 C 226.457 143.064,224.332 142.861,221.852 142.802 C 218.490 142.723,217.366 142.576,217.436 142.224 C 217.501 141.903,216.990 141.753,215.834 141.753 L 214.138 141.753 214.138 139.114 C 214.138 137.020,214.021 136.475,213.572 136.475 C 213.188 136.475,213.007 136.091,213.007 135.281 C 213.007 134.625,212.909 134.185,212.790 134.304 C 212.513 134.581,209.991 132.150,209.991 131.605 C 209.991 131.381,209.777 131.197,209.515 131.197 C 209.254 131.197,208.619 130.688,208.106 130.066 C 207.592 129.444,206.883 128.935,206.530 128.935 C 206.177 128.935,205.783 128.765,205.655 128.558 C 205.333 128.037,194.262 128.053,194.088 128.575 M203.959 131.762 C 204.217 132.074,204.821 132.328,205.302 132.328 C 205.783 132.328,206.281 132.498,206.409 132.705 C 206.537 132.912,206.971 133.082,207.374 133.082 C 207.776 133.082,208.106 133.336,208.106 133.648 C 208.106 133.959,208.370 134.213,208.693 134.213 C 209.017 134.213,209.175 134.384,209.046 134.593 C 208.917 134.801,209.077 135.074,209.401 135.199 C 209.743 135.330,209.991 135.871,209.991 136.488 C 209.991 137.073,210.233 137.794,210.529 138.090 C 210.886 138.447,211.102 139.661,211.171 141.699 L 211.276 144.769 214.242 144.769 C 216.375 144.769,217.366 144.928,217.773 145.335 C 218.212 145.774,219.340 145.900,222.824 145.900 C 226.447 145.900,227.271 145.998,227.113 146.412 C 226.958 146.814,227.584 146.940,230.037 146.999 C 231.754 147.041,233.253 147.227,233.367 147.412 C 233.482 147.598,234.928 147.801,236.581 147.862 C 238.738 147.942,239.559 148.107,239.491 148.445 C 239.424 148.780,240.050 148.916,241.659 148.916 C 243.418 148.916,243.921 149.042,243.921 149.482 C 243.921 149.930,244.465 150.047,246.560 150.047 C 248.654 150.047,249.199 150.164,249.199 150.613 C 249.199 151.031,249.637 151.178,250.884 151.178 C 252.076 151.178,252.515 151.316,252.387 151.649 C 252.260 151.981,252.791 152.156,254.181 152.239 C 255.266 152.304,256.329 152.502,256.542 152.680 C 256.756 152.857,257.524 153.058,258.248 153.127 C 259.053 153.203,259.530 153.435,259.472 153.723 C 259.408 154.044,259.918 154.194,261.074 154.194 C 262.331 154.194,262.771 154.341,262.771 154.760 C 262.771 155.071,262.898 155.305,263.054 155.281 C 264.342 155.077,265.787 155.400,265.787 155.891 C 265.787 156.308,266.222 156.456,267.443 156.456 C 268.568 156.456,269.169 156.638,269.316 157.022 C 269.453 157.377,270.029 157.587,270.865 157.587 C 271.597 157.587,272.196 157.757,272.196 157.964 C 272.196 158.172,272.705 158.341,273.327 158.341 C 274.081 158.341,274.458 158.530,274.458 158.907 C 274.458 159.282,274.834 159.472,275.577 159.472 C 276.417 159.472,276.642 159.613,276.479 160.038 C 276.306 160.490,276.610 160.603,277.999 160.603 C 279.171 160.603,279.705 160.754,279.642 161.066 C 279.590 161.320,279.972 161.591,280.490 161.669 C 281.008 161.747,281.546 161.993,281.684 162.216 C 281.823 162.438,282.328 162.681,282.807 162.754 C 283.286 162.827,283.843 163.052,284.045 163.253 C 284.246 163.454,284.716 163.619,285.090 163.619 C 285.463 163.619,285.768 163.874,285.768 164.185 C 285.768 164.562,286.145 164.750,286.899 164.750 C 287.570 164.750,288.030 164.948,288.030 165.236 C 288.030 165.502,288.397 165.748,288.844 165.782 C 289.292 165.816,289.761 166.008,289.885 166.209 C 290.009 166.411,290.590 166.696,291.175 166.842 C 291.760 166.989,292.327 167.341,292.436 167.624 C 292.544 167.907,292.755 168.064,292.903 167.972 C 293.052 167.880,293.648 168.051,294.227 168.351 C 294.806 168.651,295.594 168.897,295.978 168.897 C 296.445 168.897,296.605 169.085,296.461 169.463 C 296.323 169.821,296.466 170.028,296.849 170.028 C 297.183 170.028,297.455 170.290,297.455 170.610 C 297.455 170.930,297.667 171.165,297.926 171.131 C 299.064 170.983,299.717 171.200,299.717 171.725 C 299.717 172.073,300.071 172.290,300.638 172.290 C 301.144 172.290,301.663 172.460,301.791 172.667 C 301.919 172.875,302.353 173.044,302.756 173.044 C 303.629 173.044,305.117 174.427,304.798 174.943 C 304.673 175.146,305.083 175.306,305.727 175.306 C 306.501 175.306,306.880 175.492,306.880 175.872 C 306.880 176.183,307.214 176.437,307.622 176.437 C 308.072 176.437,308.291 176.628,308.179 176.922 C 308.070 177.206,308.297 177.429,308.731 177.462 C 309.605 177.528,311.404 178.644,311.404 179.120 C 311.404 179.303,311.828 179.453,312.347 179.453 C 312.933 179.453,313.289 179.667,313.289 180.019 C 313.289 180.330,313.544 180.584,313.855 180.584 C 314.166 180.584,314.420 180.867,314.420 181.213 C 314.420 181.558,314.532 181.729,314.669 181.592 C 314.806 181.455,315.155 181.681,315.445 182.095 C 315.734 182.508,316.281 182.846,316.659 182.846 C 317.038 182.846,318.026 183.525,318.856 184.354 C 319.685 185.184,320.638 185.862,320.974 185.862 C 321.309 185.862,321.583 186.117,321.583 186.428 C 321.583 186.739,321.917 186.993,322.326 186.993 C 322.858 186.993,323.001 187.168,322.831 187.610 C 322.672 188.025,322.761 188.172,323.102 188.058 C 323.642 187.878,324.976 188.999,324.976 189.632 C 324.976 189.840,325.231 190.009,325.542 190.009 C 325.853 190.009,326.065 190.221,326.013 190.481 C 325.960 190.746,326.373 191.004,326.956 191.071 C 327.586 191.144,327.992 191.418,327.992 191.771 C 327.992 192.133,328.206 192.270,328.558 192.135 C 328.943 191.988,329.123 192.155,329.123 192.660 C 329.123 193.068,329.336 193.360,329.595 193.308 C 329.854 193.256,330.019 193.439,329.962 193.713 C 329.905 193.992,330.041 194.100,330.271 193.958 C 330.504 193.814,330.773 194.049,330.891 194.502 C 331.013 194.969,331.354 195.258,331.714 195.199 C 332.116 195.134,332.290 195.326,332.217 195.759 C 332.142 196.205,332.352 196.418,332.865 196.418 C 333.352 196.418,333.553 196.603,333.426 196.934 C 333.307 197.245,333.552 197.535,334.041 197.663 C 334.504 197.784,334.745 198.053,334.600 198.287 C 334.458 198.517,334.566 198.653,334.845 198.596 C 335.119 198.539,335.297 198.717,335.240 198.991 C 335.183 199.270,335.319 199.378,335.549 199.236 C 335.783 199.091,336.052 199.332,336.173 199.795 C 336.301 200.284,336.591 200.529,336.902 200.410 C 337.223 200.287,337.418 200.474,337.418 200.907 C 337.418 201.400,337.696 201.602,338.376 201.602 C 339.555 201.602,339.657 201.700,339.759 202.925 C 339.803 203.464,340.016 203.875,340.231 203.838 C 340.446 203.800,340.580 203.982,340.528 204.241 C 340.476 204.500,340.768 204.713,341.176 204.713 C 341.681 204.713,341.849 204.893,341.701 205.278 C 341.563 205.636,341.706 205.844,342.090 205.844 C 342.423 205.844,342.696 206.116,342.696 206.449 C 342.696 206.833,342.903 206.976,343.261 206.838 C 343.588 206.713,343.827 206.831,343.827 207.118 C 343.827 207.392,344.332 208.003,344.949 208.476 C 345.566 208.949,345.981 209.483,345.869 209.663 C 345.758 209.843,346.035 209.991,346.484 209.991 C 347.055 209.991,347.235 210.161,347.083 210.556 C 346.951 210.901,347.083 211.122,347.420 211.122 C 347.724 211.122,347.974 211.371,347.974 211.675 C 347.974 212.013,348.195 212.144,348.539 212.012 C 348.944 211.856,349.105 212.050,349.105 212.694 C 349.105 213.224,349.576 214.006,350.252 214.600 C 350.884 215.154,351.358 215.658,351.306 215.721 C 351.106 215.963,352.691 217.531,353.135 217.531 C 353.399 217.531,353.509 217.780,353.386 218.100 C 353.230 218.508,353.340 218.604,353.775 218.437 C 354.253 218.254,354.383 218.453,354.383 219.375 C 354.383 220.020,354.576 220.547,354.812 220.547 C 355.384 220.547,356.241 221.707,356.256 222.500 C 356.262 222.849,356.777 223.497,357.399 223.940 C 358.021 224.383,358.530 224.988,358.530 225.285 C 358.530 225.582,358.784 225.825,359.095 225.825 C 359.413 225.825,359.661 226.162,359.661 226.595 C 359.661 227.019,360.085 227.823,360.603 228.382 C 361.122 228.941,361.546 229.800,361.546 230.291 C 361.546 230.929,361.707 231.122,362.111 230.966 C 362.502 230.816,362.677 230.991,362.677 231.532 C 362.677 232.073,362.851 232.247,363.242 232.097 C 363.679 231.930,363.808 232.183,363.808 233.210 C 363.808 233.942,363.955 234.449,364.134 234.338 C 364.604 234.048,365.651 235.321,365.813 236.381 C 365.888 236.877,366.147 237.349,366.387 237.429 C 366.627 237.509,366.824 237.985,366.824 238.486 C 366.824 239.044,367.043 239.397,367.389 239.397 C 367.914 239.397,368.131 240.050,367.983 241.188 C 367.949 241.447,368.184 241.659,368.504 241.659 C 368.824 241.659,369.086 241.913,369.086 242.224 C 369.086 242.535,369.294 242.747,369.548 242.696 C 369.802 242.644,370.074 243.025,370.152 243.544 C 370.229 244.062,370.467 244.594,370.679 244.726 C 370.891 244.858,371.065 245.420,371.065 245.974 C 371.065 246.636,371.230 246.918,371.546 246.797 C 371.856 246.678,372.115 247.076,372.272 247.916 C 372.407 248.633,372.678 249.120,372.875 248.999 C 373.072 248.877,373.233 249.296,373.233 249.931 C 373.233 250.652,373.409 251.049,373.704 250.990 C 373.971 250.936,374.228 251.354,374.297 251.954 C 374.364 252.537,374.660 253.106,374.957 253.220 C 375.253 253.334,375.495 253.818,375.495 254.297 C 375.495 254.776,375.660 255.225,375.861 255.294 C 376.062 255.363,376.290 255.835,376.367 256.342 C 376.444 256.849,376.703 257.330,376.943 257.410 C 377.183 257.490,377.380 258.038,377.380 258.628 C 377.380 259.218,377.634 259.956,377.945 260.267 C 378.256 260.578,378.511 261.286,378.511 261.842 C 378.511 262.585,378.660 262.794,379.076 262.635 C 379.521 262.464,379.642 262.740,379.642 263.926 C 379.642 264.918,379.835 265.508,380.207 265.651 C 380.591 265.798,380.773 266.399,380.773 267.524 C 380.773 268.435,380.924 269.180,381.109 269.180 C 381.294 269.180,381.552 269.604,381.682 270.123 C 381.812 270.641,382.085 271.065,382.288 271.065 C 382.491 271.065,382.658 271.919,382.658 272.962 C 382.658 274.300,382.824 274.923,383.223 275.076 C 383.610 275.224,383.789 275.829,383.789 276.989 C 383.789 278.342,383.903 278.642,384.354 278.469 C 384.795 278.300,384.920 278.565,384.920 279.673 C 384.920 280.454,385.080 281.254,385.275 281.451 C 385.471 281.648,385.667 282.955,385.712 284.354 C 385.770 286.192,385.933 286.899,386.299 286.899 C 386.646 286.899,386.805 287.423,386.805 288.569 C 386.805 289.512,387.039 290.472,387.343 290.776 C 387.700 291.133,387.916 292.347,387.985 294.385 C 388.061 296.593,388.227 297.455,388.579 297.455 C 388.940 297.455,389.067 298.287,389.067 300.660 C 389.067 303.022,389.191 303.840,389.538 303.770 C 389.888 303.700,390.037 304.787,390.117 308.006 C 390.176 310.387,390.388 312.499,390.588 312.699 C 390.811 312.922,390.952 319.469,390.952 329.576 L 390.952 346.089 200.566 346.089 L 10.179 346.089 10.179 344.815 C 10.179 344.115,9.925 343.331,9.614 343.073 C 8.762 342.366,8.762 310.603,9.614 309.896 C 10.049 309.535,10.179 308.535,10.179 305.537 C 10.179 303.350,10.344 301.545,10.556 301.414 C 10.763 301.286,10.933 299.815,10.933 298.147 C 10.933 295.605,11.025 295.148,11.499 295.330 C 11.970 295.511,12.064 295.079,12.064 292.731 C 12.064 290.679,12.192 289.941,12.535 290.009 C 12.859 290.074,13.042 289.423,13.120 287.936 C 13.195 286.493,13.393 285.768,13.712 285.768 C 14.028 285.768,14.222 285.092,14.280 283.789 C 14.329 282.700,14.529 281.648,14.725 281.451 C 14.920 281.254,15.080 280.528,15.080 279.837 C 15.080 279.069,15.300 278.497,15.646 278.364 C 16.014 278.223,16.211 277.637,16.211 276.680 C 16.211 275.626,16.371 275.212,16.777 275.212 C 17.205 275.212,17.342 274.748,17.342 273.300 C 17.342 272.103,17.554 271.177,17.908 270.823 C 18.219 270.512,18.473 269.948,18.473 269.570 C 18.473 269.193,18.728 268.786,19.039 268.667 C 19.391 268.531,19.604 267.956,19.604 267.141 C 19.604 266.421,19.774 265.727,19.981 265.598 C 20.189 265.470,20.358 265.054,20.358 264.674 C 20.358 264.294,20.602 263.889,20.901 263.774 C 21.228 263.649,21.490 262.921,21.561 261.943 C 21.636 260.892,21.844 260.354,22.149 260.415 C 22.425 260.470,22.620 260.119,22.620 259.566 C 22.620 258.968,22.833 258.624,23.202 258.624 C 23.522 258.624,23.757 258.412,23.723 258.153 C 23.542 256.759,23.777 256.018,24.332 256.232 C 24.652 256.354,24.886 256.306,24.853 256.125 C 24.652 255.027,24.936 252.958,25.259 253.157 C 25.478 253.293,25.636 252.923,25.636 252.277 C 25.636 251.636,25.876 251.073,26.202 250.948 C 26.513 250.828,26.767 250.301,26.767 249.776 C 26.767 249.214,26.961 248.861,27.238 248.916 C 27.504 248.969,27.762 248.557,27.829 247.974 C 27.896 247.392,28.180 246.937,28.477 246.937 C 28.792 246.937,28.918 246.708,28.789 246.371 C 28.638 245.979,28.815 245.806,29.366 245.806 C 29.803 245.806,30.140 245.679,30.116 245.523 C 29.968 244.589,30.217 243.534,30.537 243.732 C 30.757 243.868,30.914 243.485,30.914 242.812 C 30.914 242.038,31.100 241.659,31.480 241.659 C 31.852 241.659,32.045 241.286,32.045 240.568 C 32.045 239.946,32.288 239.384,32.611 239.260 C 32.922 239.141,33.176 238.784,33.176 238.466 C 33.176 237.809,34.482 236.381,35.084 236.381 C 35.303 236.381,35.387 236.225,35.269 236.035 C 34.897 235.433,35.794 233.677,36.580 233.471 C 36.995 233.363,37.313 233.082,37.285 232.848 C 37.158 231.785,37.363 231.103,37.809 231.103 C 38.075 231.103,38.322 230.734,38.356 230.282 C 38.390 229.831,38.850 229.090,39.378 228.636 C 39.907 228.182,40.339 227.639,40.339 227.429 C 40.339 227.220,40.594 226.837,40.905 226.579 C 41.216 226.321,41.470 225.791,41.470 225.402 C 41.470 225.012,41.725 224.694,42.036 224.694 C 42.347 224.694,42.601 224.439,42.601 224.128 C 42.601 223.817,42.809 223.605,43.064 223.657 C 43.318 223.709,43.589 223.327,43.665 222.809 C 43.742 222.290,44.047 221.728,44.342 221.560 C 44.637 221.392,44.781 221.095,44.661 220.900 C 44.540 220.706,44.706 220.547,45.030 220.547 C 45.353 220.547,45.617 220.310,45.617 220.021 C 45.617 219.733,45.872 219.399,46.183 219.279 C 46.494 219.160,46.748 218.615,46.748 218.068 C 46.748 217.338,46.899 217.131,47.314 217.290 C 47.658 217.422,47.879 217.291,47.879 216.953 C 47.879 216.649,48.049 216.400,48.256 216.400 C 48.464 216.400,48.633 216.145,48.633 215.834 C 48.633 215.520,48.968 215.269,49.387 215.269 C 49.802 215.269,50.102 215.141,50.054 214.986 C 49.918 214.547,51.368 213.021,51.717 213.237 C 51.887 213.342,52.026 212.909,52.026 212.275 C 52.026 211.467,52.208 211.122,52.632 211.122 C 53.016 211.122,53.158 210.914,53.021 210.556 C 52.902 210.245,52.974 209.991,53.182 209.991 C 53.390 209.991,54.063 209.476,54.678 208.847 C 55.293 208.217,55.807 207.836,55.820 207.998 C 55.833 208.161,56.002 207.901,56.194 207.422 C 56.387 206.942,56.715 206.655,56.924 206.784 C 57.133 206.913,57.304 206.755,57.304 206.431 C 57.304 206.108,57.554 205.844,57.858 205.844 C 58.195 205.844,58.327 205.623,58.195 205.278 C 58.073 204.959,58.186 204.713,58.453 204.713 C 58.715 204.713,59.616 203.992,60.457 203.110 C 61.297 202.229,62.119 201.550,62.283 201.602 C 62.448 201.654,62.582 201.442,62.582 201.131 C 62.582 200.820,62.837 200.566,63.148 200.566 C 63.459 200.566,63.671 200.431,63.619 200.266 C 63.567 200.102,64.246 199.280,65.127 198.440 C 66.008 197.600,66.730 196.698,66.730 196.437 C 66.730 196.169,66.976 196.056,67.295 196.178 C 67.639 196.310,67.861 196.178,67.861 195.841 C 67.861 195.537,68.115 195.287,68.426 195.287 C 68.737 195.287,68.949 195.155,68.897 194.992 C 68.720 194.438,71.366 192.185,72.253 192.134 C 72.740 192.106,73.138 191.871,73.138 191.612 C 73.138 191.352,73.288 191.140,73.472 191.140 C 73.655 191.140,73.894 190.800,74.002 190.385 C 74.136 189.872,74.397 189.705,74.816 189.866 C 75.154 189.996,75.385 189.954,75.328 189.773 C 75.181 189.302,76.606 187.749,76.976 187.977 C 77.146 188.083,77.286 187.904,77.286 187.581 C 77.286 187.179,77.644 186.993,78.417 186.993 C 79.132 186.993,79.548 186.800,79.548 186.468 C 79.548 186.179,79.826 185.836,80.167 185.705 C 80.508 185.575,80.692 185.373,80.575 185.257 C 80.241 184.922,81.740 183.602,82.469 183.588 C 83.268 183.574,84.449 182.728,84.449 182.170 C 84.449 181.948,84.790 181.658,85.208 181.525 C 85.626 181.393,85.870 181.127,85.751 180.934 C 85.632 180.742,86.054 180.584,86.688 180.584 C 87.323 180.584,87.842 180.386,87.842 180.143 C 87.842 179.360,89.064 178.322,89.985 178.322 C 90.478 178.322,90.979 178.069,91.098 177.759 C 91.216 177.449,91.466 177.290,91.651 177.404 C 91.837 177.519,91.989 177.348,91.989 177.025 C 91.989 176.623,92.347 176.437,93.120 176.437 C 93.993 176.437,94.251 176.268,94.251 175.695 C 94.251 175.156,94.423 175.019,94.882 175.195 C 95.360 175.379,95.454 175.284,95.270 174.806 C 95.084 174.320,95.245 174.175,95.971 174.175 C 96.489 174.175,97.011 173.921,97.130 173.610 C 97.250 173.299,97.570 173.044,97.841 173.044 C 98.113 173.044,98.391 172.917,98.461 172.762 C 98.530 172.606,99.407 172.055,100.409 171.536 C 103.323 170.030,103.557 169.860,103.392 169.366 C 103.287 169.050,103.683 168.897,104.609 168.897 C 105.429 168.897,105.888 168.745,105.749 168.520 C 105.551 168.200,106.606 167.951,107.540 168.099 C 107.696 168.123,107.823 167.889,107.823 167.578 C 107.823 167.196,108.204 167.012,108.994 167.012 C 109.880 167.012,110.113 166.875,109.948 166.447 C 109.804 166.070,109.964 165.881,110.427 165.881 C 110.810 165.881,111.335 165.627,111.593 165.316 C 111.851 165.005,112.560 164.750,113.169 164.750 C 113.778 164.750,114.179 164.592,114.059 164.399 C 113.780 163.947,114.296 163.637,115.491 163.538 C 116.012 163.495,116.357 163.326,116.256 163.162 C 116.086 162.887,116.773 162.722,117.908 162.764 C 118.167 162.774,118.379 162.546,118.379 162.258 C 118.379 161.779,118.929 161.587,120.170 161.633 C 120.429 161.643,120.641 161.415,120.641 161.127 C 120.641 160.664,121.547 160.441,123.186 160.502 C 123.445 160.512,123.657 160.284,123.657 159.996 C 123.657 159.501,124.346 159.296,125.486 159.453 C 125.766 159.491,125.882 159.340,125.744 159.118 C 125.607 158.895,125.802 158.617,126.178 158.500 C 126.554 158.382,127.156 158.129,127.516 157.937 C 127.876 157.744,128.661 157.587,129.261 157.587 C 129.860 157.587,130.544 157.354,130.781 157.069 C 131.018 156.784,131.887 156.442,132.712 156.310 C 133.538 156.178,134.213 155.903,134.213 155.698 C 134.213 155.493,134.701 155.325,135.298 155.325 C 135.895 155.325,136.594 155.071,136.852 154.760 C 137.123 154.433,137.945 154.194,138.795 154.194 C 139.757 154.194,140.344 153.998,140.486 153.629 C 140.626 153.263,141.210 153.063,142.139 153.063 C 142.929 153.063,143.632 152.903,143.701 152.707 C 143.770 152.511,144.717 152.311,145.806 152.263 C 147.150 152.203,147.785 152.015,147.785 151.676 C 147.785 151.402,148.167 151.176,148.633 151.173 C 149.964 151.165,151.190 150.748,150.963 150.381 C 150.783 150.090,154.583 149.828,156.036 150.031 C 156.368 150.077,156.475 149.887,156.331 149.510 C 156.141 149.015,156.440 148.916,158.124 148.916 C 159.573 148.916,160.207 148.756,160.363 148.351 C 160.530 147.915,161.255 147.785,163.532 147.785 C 165.156 147.785,166.646 147.625,166.843 147.429 C 167.040 147.234,168.516 147.039,170.123 146.997 C 172.254 146.942,173.044 146.786,173.044 146.423 C 173.044 146.046,174.076 145.899,177.286 145.818 C 180.433 145.739,181.503 145.590,181.433 145.240 C 181.362 144.888,182.293 144.769,185.108 144.769 L 188.878 144.769 188.878 141.611 C 188.878 139.263,189.024 138.332,189.444 137.983 C 189.755 137.725,190.009 137.201,190.009 136.818 C 190.009 136.322,190.191 136.191,190.640 136.364 C 191.107 136.543,191.212 136.451,191.043 136.012 C 190.892 135.618,191.073 135.351,191.581 135.218 C 192.003 135.108,192.235 134.837,192.099 134.615 C 191.962 134.394,192.114 134.213,192.438 134.213 C 192.761 134.213,193.025 133.959,193.025 133.648 C 193.025 133.336,193.280 133.082,193.591 133.082 C 193.902 133.082,194.156 132.912,194.156 132.705 C 194.156 132.498,194.562 132.328,195.059 132.328 C 195.555 132.328,196.058 132.074,196.178 131.762 C 196.349 131.315,197.137 131.197,199.942 131.197 C 202.635 131.197,203.602 131.333,203.959 131.762 M84.826 214.892 C 84.826 215.099,84.266 215.269,83.583 215.269 C 82.665 215.269,82.097 215.561,81.415 216.384 C 80.906 216.997,80.108 217.506,79.642 217.515 C 79.146 217.524,78.794 217.766,78.794 218.096 C 78.794 218.450,78.436 218.662,77.839 218.662 C 77.314 218.662,76.787 218.916,76.668 219.227 C 76.549 219.538,76.215 219.793,75.926 219.793 C 75.637 219.793,75.401 220.057,75.401 220.380 C 75.401 220.704,75.230 220.863,75.021 220.734 C 74.812 220.604,74.539 220.764,74.415 221.088 C 74.291 221.412,73.953 221.678,73.664 221.678 C 73.375 221.678,73.139 221.932,73.139 222.243 C 73.139 222.554,72.870 222.809,72.542 222.809 C 72.213 222.809,72.012 223.010,72.094 223.256 C 72.258 223.750,71.097 225.071,70.500 225.071 C 70.292 225.071,70.123 225.325,70.123 225.636 C 70.123 225.947,69.973 226.159,69.791 226.107 C 69.609 226.056,69.023 226.480,68.489 227.050 C 67.956 227.620,67.347 228.087,67.136 228.087 C 66.926 228.087,66.842 228.319,66.952 228.604 C 67.061 228.888,66.886 229.222,66.563 229.346 C 66.240 229.470,65.975 229.995,65.975 230.514 C 65.975 231.240,65.831 231.401,65.345 231.214 C 64.867 231.031,64.772 231.125,64.956 231.603 C 65.132 232.061,64.995 232.234,64.456 232.234 C 63.969 232.234,63.713 232.489,63.713 232.976 C 63.713 233.468,63.530 233.648,63.169 233.509 C 62.808 233.371,62.642 233.533,62.675 233.992 C 62.733 234.766,61.548 236.758,61.031 236.758 C 60.848 236.758,60.697 237.182,60.697 237.700 C 60.697 238.287,60.484 238.643,60.132 238.643 C 59.753 238.643,59.566 239.022,59.566 239.796 C 59.566 240.517,59.416 240.856,59.164 240.701 C 58.943 240.564,58.669 240.808,58.555 241.244 C 58.441 241.679,58.113 242.036,57.826 242.036 C 57.521 242.036,57.304 242.427,57.304 242.978 C 57.304 243.497,57.146 243.921,56.952 243.921 C 56.759 243.921,56.547 244.387,56.481 244.958 C 56.414 245.541,56.156 245.953,55.891 245.900 C 55.586 245.839,55.419 246.268,55.419 247.114 C 55.419 248.121,55.290 248.371,54.854 248.204 C 54.401 248.030,54.288 248.338,54.288 249.746 C 54.288 250.761,54.137 251.412,53.930 251.284 C 53.734 251.162,53.462 251.650,53.328 252.367 C 53.170 253.207,52.912 253.605,52.602 253.486 C 52.283 253.364,52.121 253.653,52.121 254.345 C 52.121 254.919,51.930 255.452,51.697 255.529 C 51.463 255.607,51.272 256.335,51.272 257.147 C 51.272 258.209,51.113 258.624,50.707 258.624 C 50.288 258.624,50.141 259.064,50.141 260.320 C 50.141 261.577,49.995 262.017,49.576 262.017 C 49.179 262.017,49.010 262.418,49.010 263.363 C 49.010 264.104,48.756 264.964,48.445 265.275 C 48.134 265.586,47.879 266.320,47.879 266.905 C 47.879 267.490,47.652 268.056,47.374 268.162 C 47.033 268.293,46.843 269.189,46.787 270.936 C 46.742 272.355,46.545 273.677,46.350 273.874 C 46.154 274.071,45.994 274.961,45.994 275.853 C 45.994 277.043,45.844 277.474,45.429 277.474 C 44.976 277.474,44.863 278.040,44.863 280.302 C 44.863 282.564,44.750 283.129,44.298 283.129 C 43.825 283.129,43.732 283.903,43.732 287.830 C 43.732 291.731,43.641 292.496,43.198 292.326 C 42.745 292.152,42.657 293.809,42.619 303.203 C 42.569 315.175,42.610 315.551,43.961 315.551 C 44.457 315.551,44.863 315.721,44.863 315.928 C 44.863 316.136,45.542 316.305,46.371 316.305 C 47.460 316.305,47.879 316.462,47.879 316.871 C 47.879 317.279,48.298 317.436,49.387 317.436 L 50.895 317.436 50.895 311.633 C 50.895 306.823,50.992 305.793,51.461 305.613 C 51.909 305.441,52.026 304.650,52.026 301.814 C 52.026 298.786,52.114 298.266,52.592 298.450 C 53.060 298.629,53.157 298.232,53.157 296.149 C 53.157 294.414,53.333 293.456,53.723 293.066 C 54.057 292.732,54.288 291.811,54.288 290.819 C 54.288 289.672,54.468 289.069,54.854 288.921 C 55.260 288.765,55.419 288.130,55.419 286.670 C 55.419 285.552,55.589 284.637,55.796 284.637 C 56.004 284.637,56.173 283.704,56.173 282.564 C 56.173 280.972,56.305 280.490,56.739 280.490 C 57.147 280.490,57.304 280.071,57.304 278.982 C 57.304 277.974,57.472 277.474,57.809 277.474 C 58.129 277.474,58.332 276.968,58.365 276.088 C 58.394 275.326,58.595 274.593,58.812 274.459 C 59.029 274.325,59.342 273.464,59.507 272.546 C 59.673 271.628,59.973 270.907,60.173 270.944 C 60.374 270.981,60.575 270.557,60.621 270.002 C 60.666 269.446,60.872 268.935,61.078 268.866 C 61.283 268.797,61.451 268.076,61.451 267.264 C 61.451 266.202,61.611 265.787,62.017 265.787 C 62.371 265.787,62.582 265.430,62.582 264.833 C 62.582 264.308,62.837 263.781,63.148 263.661 C 63.468 263.538,63.713 262.977,63.713 262.365 C 63.713 261.561,63.858 261.342,64.279 261.504 C 64.688 261.661,64.844 261.462,64.844 260.784 C 64.844 260.269,65.099 259.636,65.410 259.378 C 65.721 259.120,65.975 258.515,65.975 258.035 C 65.975 257.554,66.145 257.056,66.352 256.927 C 66.560 256.799,66.730 256.365,66.730 255.963 C 66.730 255.560,66.984 255.231,67.295 255.231 C 67.614 255.231,67.861 254.894,67.861 254.459 C 67.861 254.034,68.261 253.313,68.751 252.857 C 69.240 252.400,69.766 251.627,69.920 251.138 C 70.277 250.000,71.297 248.804,71.698 249.052 C 71.868 249.157,72.008 248.724,72.008 248.090 C 72.008 247.316,72.194 246.937,72.573 246.937 C 72.884 246.937,73.139 246.755,73.139 246.532 C 73.139 246.310,73.817 245.518,74.647 244.774 C 75.589 243.928,76.155 243.090,76.155 242.539 C 76.155 241.969,76.376 241.659,76.783 241.659 C 77.128 241.659,77.297 241.544,77.156 241.404 C 76.823 241.071,78.401 239.397,79.048 239.397 C 79.323 239.397,79.548 239.164,79.548 238.878 C 79.548 238.313,81.783 237.074,82.266 237.372 C 82.430 237.473,82.564 237.292,82.564 236.969 C 82.564 236.645,82.813 236.381,83.117 236.381 C 83.455 236.381,83.586 236.160,83.454 235.815 C 83.320 235.465,83.456 235.250,83.811 235.250 C 84.127 235.250,84.442 235.082,84.511 234.876 C 84.581 234.670,85.092 234.465,85.647 234.419 C 86.203 234.373,86.627 234.179,86.590 233.987 C 86.553 233.796,87.002 233.503,87.588 233.338 C 88.174 233.173,89.028 232.602,89.485 232.070 C 89.942 231.538,90.498 231.103,90.720 231.103 C 91.422 231.103,91.392 225.484,90.689 225.215 C 90.238 225.042,90.104 224.393,90.104 222.391 C 90.104 220.372,89.982 219.793,89.557 219.793 C 89.156 219.793,88.980 219.215,88.897 217.625 C 88.820 216.137,88.636 215.487,88.313 215.551 C 88.054 215.603,87.842 215.391,87.842 215.080 C 87.842 214.672,87.423 214.515,86.334 214.515 C 85.504 214.515,84.826 214.684,84.826 214.892 M86.542 221.317 C 86.894 221.610,87.088 222.489,87.088 223.797 C 87.088 224.912,87.257 225.825,87.465 225.825 C 88.019 225.825,87.901 228.920,87.317 229.689 C 87.041 230.052,86.430 230.349,85.958 230.349 C 85.487 230.349,84.708 230.773,84.227 231.291 C 83.747 231.810,83.086 232.234,82.758 232.234 C 82.431 232.234,82.065 232.488,81.946 232.799 C 81.827 233.110,81.493 233.365,81.204 233.365 C 80.915 233.365,80.679 233.593,80.679 233.872 C 80.679 234.532,79.377 235.708,79.031 235.361 C 78.884 235.214,78.666 235.468,78.546 235.926 C 78.427 236.383,78.094 236.758,77.807 236.758 C 77.520 236.758,77.286 236.940,77.286 237.162 C 77.286 237.684,76.326 238.643,75.804 238.643 C 75.582 238.643,75.401 238.871,75.401 239.150 C 75.401 239.429,75.061 239.964,74.647 240.339 C 74.232 240.715,73.893 240.918,73.893 240.792 C 73.893 240.398,72.130 242.303,71.872 242.976 C 71.737 243.328,71.288 243.704,70.875 243.812 C 70.338 243.952,70.123 244.327,70.123 245.118 C 70.123 245.808,69.970 246.133,69.720 245.979 C 69.499 245.842,69.228 246.075,69.117 246.496 C 68.996 246.959,68.708 247.181,68.389 247.059 C 68.068 246.936,67.861 247.099,67.861 247.474 C 67.861 247.814,67.607 248.189,67.297 248.308 C 66.987 248.427,66.809 248.645,66.901 248.794 C 66.993 248.943,66.822 249.538,66.522 250.117 C 66.221 250.696,65.975 251.485,65.975 251.869 C 65.975 252.336,65.787 252.496,65.410 252.351 C 65.052 252.214,64.844 252.356,64.844 252.740 C 64.844 253.073,64.583 253.346,64.262 253.346 C 63.942 253.346,63.708 253.558,63.742 253.817 C 63.889 254.954,63.673 255.608,63.148 255.608 C 62.800 255.608,62.582 255.962,62.582 256.528 C 62.582 257.034,62.413 257.553,62.205 257.681 C 61.998 257.810,61.828 258.310,61.828 258.794 C 61.828 259.278,61.574 259.772,61.263 259.891 C 60.952 260.011,60.697 260.532,60.697 261.051 C 60.697 261.682,60.531 261.929,60.194 261.800 C 59.831 261.661,59.675 262.036,59.631 263.157 C 59.597 264.009,59.315 264.962,59.003 265.274 C 58.691 265.586,58.435 266.168,58.435 266.568 C 58.435 266.968,58.181 267.295,57.870 267.295 C 57.463 267.295,57.304 267.711,57.304 268.781 C 57.304 269.598,57.135 270.371,56.927 270.500 C 56.720 270.628,56.550 271.044,56.550 271.424 C 56.550 271.804,56.296 272.213,55.985 272.332 C 55.577 272.489,55.419 273.128,55.419 274.623 C 55.419 276.311,55.314 276.656,54.854 276.479 C 54.403 276.306,54.288 276.606,54.288 277.959 C 54.288 279.119,54.110 279.724,53.723 279.872 C 53.350 280.016,53.157 280.606,53.157 281.609 C 53.157 282.630,52.991 283.129,52.651 283.129 C 52.286 283.129,52.123 283.836,52.065 285.674 C 52.021 287.074,51.824 288.275,51.629 288.344 C 51.433 288.413,51.272 289.286,51.272 290.283 C 51.272 291.547,51.101 292.162,50.707 292.314 C 50.278 292.478,50.141 293.173,50.141 295.181 C 50.141 297.286,50.025 297.832,49.576 297.832 C 49.113 297.832,49.010 298.482,49.010 301.414 C 49.010 304.346,48.908 304.995,48.445 304.995 C 47.976 304.995,47.879 305.707,47.879 309.142 L 47.879 313.289 46.748 313.289 L 45.617 313.289 45.617 302.733 C 45.617 293.601,45.694 292.177,46.183 292.177 C 46.653 292.177,46.748 291.440,46.748 287.801 C 46.748 284.067,46.831 283.457,47.314 283.642 C 47.783 283.823,47.879 283.413,47.879 281.232 C 47.879 279.148,47.996 278.605,48.445 278.605 C 48.877 278.605,49.010 278.128,49.010 276.578 C 49.010 275.236,49.201 274.392,49.576 274.081 C 49.937 273.781,50.141 272.947,50.141 271.773 C 50.141 270.762,50.311 269.934,50.518 269.934 C 50.726 269.934,50.895 269.255,50.895 268.426 C 50.895 267.337,51.052 266.918,51.461 266.918 C 51.900 266.918,52.026 266.417,52.026 264.668 C 52.026 262.823,52.128 262.457,52.592 262.635 C 53.044 262.808,53.157 262.504,53.157 261.115 C 53.157 259.943,53.308 259.409,53.620 259.472 C 53.874 259.524,54.145 259.142,54.221 258.624 C 54.298 258.106,54.564 257.566,54.811 257.424 C 55.059 257.282,55.305 256.524,55.358 255.739 C 55.411 254.954,55.599 254.221,55.776 254.111 C 55.953 254.001,56.161 253.487,56.239 252.969 C 56.316 252.451,56.588 252.069,56.842 252.121 C 57.112 252.176,57.304 251.811,57.304 251.245 C 57.304 250.712,57.559 250.022,57.870 249.711 C 58.181 249.399,58.435 248.823,58.435 248.430 C 58.435 247.964,58.624 247.787,58.975 247.921 C 59.364 248.071,59.548 247.779,59.635 246.873 C 59.707 246.116,59.942 245.655,60.226 245.712 C 60.485 245.763,60.677 245.679,60.653 245.523 C 60.505 244.589,60.754 243.534,61.074 243.732 C 61.294 243.868,61.451 243.485,61.451 242.812 C 61.451 242.038,61.638 241.659,62.017 241.659 C 62.369 241.659,62.582 241.303,62.582 240.716 C 62.582 239.717,63.898 238.102,64.439 238.436 C 64.615 238.545,64.752 238.424,64.743 238.167 C 64.697 236.914,64.893 236.381,65.398 236.381 C 65.712 236.381,65.866 236.157,65.753 235.864 C 65.644 235.580,65.819 235.246,66.142 235.122 C 66.465 234.998,66.730 234.472,66.730 233.954 C 66.730 233.228,66.874 233.067,67.360 233.254 C 67.838 233.437,67.933 233.343,67.749 232.865 C 67.573 232.406,67.710 232.234,68.249 232.234 C 68.736 232.234,68.992 231.978,68.992 231.492 C 68.992 231.055,69.185 230.822,69.463 230.926 C 69.931 231.102,70.877 229.524,70.877 228.565 C 70.877 228.289,71.131 227.965,71.442 227.846 C 71.753 227.727,72.008 227.398,72.008 227.116 C 72.008 226.814,72.241 226.692,72.573 226.819 C 72.931 226.957,73.139 226.814,73.139 226.431 C 73.139 226.097,73.393 225.825,73.704 225.825 C 74.015 225.825,74.270 225.570,74.270 225.259 C 74.270 224.948,74.588 224.694,74.977 224.694 C 75.367 224.694,75.895 224.441,76.151 224.132 C 76.407 223.824,76.767 223.664,76.951 223.778 C 77.135 223.891,77.286 223.635,77.286 223.208 C 77.286 222.781,77.467 222.432,77.690 222.432 C 78.211 222.432,79.171 221.473,79.171 220.951 C 79.171 220.728,79.680 220.547,80.302 220.547 C 81.056 220.547,81.433 220.358,81.433 219.981 C 81.433 219.629,81.789 219.416,82.375 219.416 C 82.893 219.416,83.318 219.246,83.318 219.039 C 83.318 218.831,83.732 218.662,84.238 218.662 C 84.744 218.662,85.295 218.450,85.463 218.190 C 85.651 217.900,85.812 218.322,85.883 219.292 C 85.946 220.157,86.242 221.069,86.542 221.317 M1.722 356.010 C 1.826 356.281,1.481 356.733,0.956 357.015 L -0.000 357.526 -0.000 367.264 L 0.000 377.003 200.000 377.003 L 400.000 377.003 400.000 367.201 C 400.000 360.553,399.872 357.399,399.601 357.399 C 399.381 357.399,399.306 357.229,399.434 357.022 C 399.563 356.814,399.324 356.645,398.903 356.645 C 398.378 356.645,398.207 356.467,398.356 356.078 C 398.549 355.575,376.471 355.512,200.053 355.514 C 36.654 355.516,1.566 355.604,1.722 356.010 M396.403 358.932 C 396.265 359.155,396.517 359.429,396.967 359.547 C 397.457 359.675,397.702 359.965,397.583 360.276 C 397.470 360.568,397.625 360.792,397.938 360.792 C 398.404 360.792,398.492 361.819,398.492 367.223 C 398.492 371.415,398.361 373.573,398.115 373.421 C 397.908 373.293,397.738 373.469,397.738 373.811 C 397.738 374.154,397.401 374.523,396.988 374.630 C 396.576 374.738,396.331 374.977,396.445 375.161 C 396.565 375.355,314.425 375.495,200.566 375.495 C 68.420 375.495,4.556 375.370,4.715 375.113 C 4.846 374.901,4.437 374.629,3.795 374.501 C 2.696 374.281,2.318 373.379,2.594 371.631 C 2.619 371.475,2.385 371.348,2.074 371.348 C 1.232 371.348,1.232 361.732,2.074 361.409 C 2.385 361.290,2.639 360.935,2.639 360.619 C 2.639 360.304,2.931 359.705,3.288 359.288 C 4.046 358.403,396.950 358.047,396.403 358.932 " stroke="none" fill="#bcbcbc" fill-rule="evenodd"></path><path id="path1" d="M397.361 373.708 C 397.361 374.038,397.064 374.386,396.701 374.481 C 396.083 374.643,396.084 374.656,396.713 374.697 C 397.395 374.741,398.026 373.772,397.596 373.342 C 397.467 373.213,397.361 373.377,397.361 373.708 " stroke="none" fill="#c0bcbc" fill-rule="evenodd"></path><path id="path2" d="M397.361 373.708 C 397.361 374.038,397.064 374.386,396.701 374.481 C 396.083 374.643,396.084 374.656,396.713 374.697 C 397.395 374.741,398.026 373.772,397.596 373.342 C 397.467 373.213,397.361 373.377,397.361 373.708 " stroke="none" fill="#c0bcbc" fill-rule="evenodd"></path><path id="path3" d="M397.361 373.708 C 397.361 374.038,397.064 374.386,396.701 374.481 C 396.083 374.643,396.084 374.656,396.713 374.697 C 397.395 374.741,398.026 373.772,397.596 373.342 C 397.467 373.213,397.361 373.377,397.361 373.708 " stroke="none" fill="#c0bcbc" fill-rule="evenodd"></path><path id="path4" d="M397.361 373.708 C 397.361 374.038,397.064 374.386,396.701 374.481 C 396.083 374.643,396.084 374.656,396.713 374.697 C 397.395 374.741,398.026 373.772,397.596 373.342 C 397.467 373.213,397.361 373.377,397.361 373.708 " stroke="none" fill="#c0bcbc" fill-rule="evenodd"></path></g></svg>